<?xml version="1.0" encoding="UTF-8" standalone="no"?>
<!-- Generator: Adobe Illustrator 27.1.1, SVG Export Plug-In . SVG Version: 6.00 Build 0)  -->

<svg
   version="1.1"
   id="Layer_1"
   x="0px"
   y="0px"
   viewBox="0 0 1242 1024"
   xml:space="preserve"
   width="1242"
   height="1024"
   xmlns="http://www.w3.org/2000/svg"
   xmlns:svg="http://www.w3.org/2000/svg"><defs
   id="defs9" />

<g
   id="g9"
   transform="translate(-132.5,-740.1)">
	<path
   d="m 132.5,740.1 v 27.2 h 68 v 108.8 h 27.2 V 767.3 h 68 v -27.2 z"
   id="path2" />
	<path
   d="M 317.9,765.8 V 876.1 H 340 V 765.8 Z"
   id="path3" />
	<path
   d="m 394.5,765.8 c -8.7,0 -16.2,3.2 -22.7,9.6 -6.5,6.4 -9.7,13.9 -9.7,22.6 v 78.1 h 22.1 v -77.4 c 0,-3 1.1,-5.5 3.2,-7.6 2.1,-2.1 4.7,-3.2 7.6,-3.2 h 77.4 v -22.1 z"
   id="path4" />
	<path
   d="m 616.1,775.5 c -6.4,-6.5 -13.9,-9.7 -22.6,-9.7 h -67.7 c -8.7,0 -16.2,3.2 -22.7,9.7 -6.5,6.5 -9.7,14 -9.7,22.7 v 45.7 c 0,8.7 3.2,16.2 9.7,22.6 6.5,6.4 14,9.6 22.7,9.6 h 67.7 c 8.5,0 16,-3.2 22.5,-9.7 6.5,-6.5 9.7,-14 9.7,-22.5 v -45.7 c 0,-8.6 -3.2,-16.2 -9.6,-22.7 z m -12.5,67.7 c 0,2.8 -1.1,5.3 -3.2,7.5 -2.1,2.2 -4.6,3.3 -7.4,3.3 h -66.9 c -2.9,0 -5.5,-1.1 -7.6,-3.2 -2.1,-2.1 -3.2,-4.7 -3.2,-7.6 v -44.6 c 0,-3 1.1,-5.5 3.2,-7.6 2.1,-2.1 4.7,-3.2 7.6,-3.2 H 593 c 2.9,0 5.4,1.1 7.5,3.2 2.1,2.1 3.1,4.7 3.1,7.6 z"
   id="path5" />
	<path
   d="m 680.6,854.1 c -2.8,0 -5.3,-1.1 -7.5,-3.3 -2.2,-2.2 -3.3,-4.7 -3.3,-7.5 V 765.9 H 647.7 V 844 c 0,8.7 3.2,16.2 9.7,22.6 6.5,6.4 14,9.6 22.7,9.6 H 758 v -22.1 z"
   id="path6" />
	<path
   d="m 1013.2,775.5 c -6.4,-6.5 -13.9,-9.7 -22.6,-9.7 h -67.7 c -8.7,0 -16.2,3.2 -22.7,9.7 -6.5,6.5 -9.7,14 -9.7,22.7 v 77.9 h 22.1 v -77.4 c 0,-3 1.1,-5.5 3.2,-7.6 2.1,-2.1 4.7,-3.2 7.6,-3.2 h 66.9 c 2.9,0 5.4,1.1 7.5,3.2 2.1,2.1 3.1,4.7 3.1,7.6 v 77.4 h 22.1 v -77.9 c -0.2,-8.6 -3.4,-16.2 -9.8,-22.7 z"
   id="path7" />
	<path
   d="m 1109.5,787.9 v -22.1 h -60.3 v 22.1 h 19.1 v 66.2 h -19.1 v 22.1 h 60.3 v -22.1 h -19.1 v -66.2 z"
   id="path8" />
	<line
   x1="912.5"
   y1="854.09998"
   x2="912.5"
   y2="832"
   id="line8" />
	<line
   x1="1000.7"
   y1="854.09998"
   x2="1000.7"
   y2="832"
   id="line9" />
	<circle
   cx="956.59998"
   cy="821"
   r="16.799999"
   id="circle9" />
</g>
</svg>
