<?xml version="1.0" standalone="no"?>
<!DOCTYPE svg PUBLIC "-//W3C//DTD SVG 20010904//EN"
 "http://www.w3.org/TR/2001/REC-SVG-20010904/DTD/svg10.dtd">
<svg version="1.0" xmlns="http://www.w3.org/2000/svg"
 width="2180.000000pt" height="2124.000000pt" viewBox="0 0 2180.000000 2124.000000"
 preserveAspectRatio="xMidYMid meet">

<g transform="translate(0.000000,2124.000000) scale(0.100000,-0.100000)"
fill="#000000" stroke="none">
<path d="M7305 17160 c-1528 -1650 -2794 -3022 -2813 -3048 -44 -60 -114 -208
-138 -292 -15 -52 -19 -97 -18 -225 0 -148 2 -166 28 -245 52 -156 126 -278
228 -376 60 -59 5024 -4336 5107 -4402 72 -57 216 -126 321 -154 120 -31 318
-31 440 1 112 29 249 96 336 164 46 36 288 298 733 796 366 407 680 762 699
789 51 71 99 171 129 269 24 80 27 103 27 248 0 145 -3 168 -27 248 -46 150
-119 275 -218 377 -30 30 -820 752 -1757 1605 -936 852 -1702 1552 -1702 1556
0 10 2813 2974 2822 2974 12 0 4586 -4258 4587 -4270 0 -5 -1149 -1274 -2554
-2820 -1405 -1545 -2555 -2812 -2555 -2815 0 -8 691 -635 700 -635 9 0 5143
5645 5207 5725 55 68 125 211 153 310 28 97 37 273 20 377 -26 165 -99 321
-207 446 -61 71 -4746 4436 -4823 4494 -68 51 -214 119 -310 145 -118 31 -327
31 -445 -1 -117 -31 -267 -109 -353 -183 -61 -53 -610 -630 -2783 -2925 -182
-192 -281 -305 -313 -357 -58 -93 -110 -235 -127 -346 -37 -259 54 -546 234
-731 24 -25 817 -749 1761 -1609 944 -860 1715 -1567 1714 -1572 -3 -9 -1129
-1267 -1157 -1292 -19 -17 -109 60 -2476 2100 -1350 1164 -2454 2120 -2453
2124 2 4 1229 1332 2728 2951 1499 1618 2725 2948 2725 2955 0 10 -666 635
-685 642 -4 1 -1257 -1347 -2785 -2998z"/>
<path d="M11110 15346 c-173 -190 -315 -349 -315 -354 0 -5 494 -462 1099
-1017 l1098 -1007 33 33 c103 106 605 661 605 668 0 9 -2190 2021 -2200 2021
-3 0 -147 -155 -320 -344z"/>
<path d="M2543 5093 c3 -1214 -2 -1122 74 -1283 27 -56 55 -94 112 -151 82
-82 148 -120 281 -161 l75 -23 1183 -3 1182 -2 0 230 0 230 -1158 0 -1158 0
-44 23 c-26 13 -53 36 -65 57 -20 34 -20 54 -25 1100 l-5 1065 -228 3 -228 2
4 -1087z"/>
<path d="M9417 6173 c-4 -3 -7 -613 -7 -1355 l0 -1348 230 0 230 0 0 616 0
616 33 -7 c17 -5 439 -11 937 -14 887 -6 906 -6 940 -26 19 -12 43 -36 55 -55
19 -34 20 -55 25 -580 l5 -545 228 -3 228 -2 -3 567 c-4 636 -2 614 -79 772
-107 217 -299 317 -631 328 l-158 6 0 221 c0 210 1 224 23 266 41 80 38 80
469 80 l378 0 0 236 0 235 -382 -3 c-428 -5 -460 -9 -617 -83 -101 -48 -204
-151 -254 -255 -64 -132 -70 -167 -75 -447 l-4 -253 -499 0 c-485 0 -501 1
-540 21 -29 14 -46 32 -60 62 -17 39 -19 71 -19 500 l0 457 -223 0 c-123 0
-227 -3 -230 -7z"/>
<path d="M13403 6165 c-272 -50 -427 -177 -513 -420 l-35 -100 -3 -1087 -3
-1088 231 0 230 0 2 1063 3 1062 23 37 c13 21 40 45 66 57 42 21 53 21 899 21
706 0 863 -2 890 -14 41 -17 81 -62 96 -105 8 -25 11 -325 11 -1078 l0 -1043
228 2 227 3 0 1070 c0 968 -2 1076 -17 1130 -74 269 -204 402 -463 477 l-80
23 -860 2 c-676 1 -875 -1 -932 -12z"/>
<path d="M16858 6169 c-288 -42 -474 -206 -550 -484 -20 -71 -22 -104 -22
-305 0 -201 2 -233 22 -304 68 -245 210 -392 447 -462 55 -17 136 -19 965 -24
890 -5 906 -5 940 -26 19 -11 45 -38 58 -60 21 -38 22 -47 20 -245 l-3 -206
-28 -37 c-60 -77 56 -70 -1252 -76 l-1170 -5 0 -230 0 -230 1180 0 c1325 0
1223 -6 1392 76 155 74 264 217 313 413 18 70 20 113 20 360 l0 281 -47 85
c-67 119 -191 243 -293 293 -136 66 -145 67 -1123 67 -854 0 -870 0 -902 20
-64 39 -70 68 -70 317 0 244 1 246 69 297 27 21 33 21 1197 24 l1169 2 0 235
0 235 -1137 -1 c-626 -1 -1164 -5 -1195 -10z"/>
<path d="M5980 5102 c0 -1036 1 -1071 20 -1148 64 -254 232 -411 495 -465 92
-19 135 -19 973 -16 982 3 913 -2 1079 78 155 74 264 217 313 413 19 77 20
113 20 1143 l0 1063 -230 0 -230 0 -2 -1064 c-3 -1062 -3 -1065 -24 -1093 -11
-15 -36 -38 -54 -50 l-33 -23 -876 0 -876 0 -39 23 c-21 12 -47 38 -57 57 -18
33 -19 82 -19 1092 l0 1058 -230 0 -230 0 0 -1068z"/>
<path d="M14180 5349 c-206 -53 -335 -171 -394 -358 -37 -120 -40 -158 -16
-257 26 -110 78 -210 146 -277 202 -203 579 -199 772 7 124 133 173 321 128
496 -55 216 -195 348 -418 394 -97 20 -125 20 -218 -5z"/>
<path d="M2660 2662 c-19 -9 -40 -28 -47 -42 -10 -19 -13 -149 -13 -543 0
-554 1 -561 49 -587 35 -18 88 -12 118 14 l28 24 3 221 3 221 117 0 c218 1
311 28 402 120 74 73 95 125 95 235 0 75 -4 98 -25 140 -32 67 -108 141 -175
171 -74 34 -149 44 -350 44 -142 0 -176 -3 -205 -18z m485 -217 c99 -57 98
-186 -1 -242 -36 -21 -52 -23 -191 -23 l-153 0 0 145 0 145 152 0 c143 0 154
-1 193 -25z"/>
<path d="M5173 2653 c-12 -10 -27 -31 -32 -46 -7 -18 -11 -203 -11 -528 0
-532 2 -553 48 -578 12 -6 39 -11 60 -11 33 0 45 6 66 31 l26 31 0 214 0 214
83 0 82 0 115 -231 c64 -128 126 -239 139 -250 27 -21 68 -24 105 -8 24 11 56
63 56 91 0 8 -45 105 -100 216 l-99 202 47 24 c59 30 136 112 165 174 33 71
31 188 -5 264 -34 73 -103 142 -176 176 -56 27 -60 27 -302 30 -222 2 -247 1
-267 -15z m501 -206 c107 -61 95 -204 -21 -253 -23 -10 -77 -14 -178 -14
l-145 0 0 145 0 145 153 0 c139 0 155 -2 191 -23z"/>
<path d="M7717 2642 l-27 -28 0 -538 0 -538 29 -29 29 -29 336 0 336 0 32 29
c44 39 46 98 5 138 l-27 28 -270 3 -270 3 0 149 0 150 200 0 c199 0 201 0 225
24 47 47 43 112 -9 150 -25 19 -44 21 -222 24 l-194 3 0 144 0 144 269 3 c267
3 270 3 294 26 32 30 41 65 27 107 -21 65 -22 65 -398 65 l-338 0 -27 -28z"/>
<path d="M10233 2646 l-28 -24 0 -547 0 -547 28 -24 c46 -39 129 -27 154 24 4
9 10 181 13 381 l5 364 298 -384 c165 -211 309 -389 320 -396 39 -22 86 -16
118 16 l29 29 0 537 0 537 -29 29 c-46 45 -123 39 -153 -14 -10 -16 -14 -117
-18 -386 l-5 -364 -290 374 c-159 206 -300 384 -312 397 -31 31 -92 30 -130
-2z"/>
<path d="M13018 2641 l-33 -29 0 -537 0 -537 33 -29 c42 -38 89 -39 131 -3
l31 26 2 374 3 375 300 -387 c164 -212 308 -392 319 -400 34 -23 82 -17 118
15 l33 29 0 537 0 537 -33 29 c-41 37 -89 39 -129 5 l-28 -24 -5 -376 -5 -375
-295 380 c-162 210 -306 390 -319 400 -36 28 -85 24 -123 -10z"/>
<path d="M15799 2641 l-29 -29 0 -537 0 -537 29 -29 29 -29 337 0 c212 0 343
4 356 10 24 13 49 61 49 96 0 16 -12 38 -34 60 l-34 34 -266 0 -266 0 0 150 0
150 201 0 201 0 29 29 c40 40 40 89 0 133 l-29 33 -201 3 -201 3 0 145 0 144
266 0 266 0 35 35 c32 32 35 39 30 78 -4 28 -14 49 -32 64 -26 23 -28 23 -366
23 l-341 0 -29 -29z"/>
<path d="M18310 2641 l-30 -29 0 -532 0 -532 29 -29 c39 -38 97 -40 138 -5
l28 24 3 221 3 221 82 0 82 0 115 -236 c63 -130 123 -242 134 -250 36 -25 94
-18 127 15 47 48 41 75 -66 290 -52 106 -95 195 -95 199 0 5 15 14 34 20 49
18 127 91 158 149 51 93 53 215 7 309 -29 57 -114 138 -176 166 -45 21 -65 23
-296 26 l-247 3 -30 -30z m510 -193 c52 -36 72 -69 72 -121 0 -57 -28 -99 -82
-127 -34 -17 -59 -20 -185 -20 l-145 0 0 145 0 145 154 0 c142 0 155 -2 186
-22z"/>
</g>
</svg>
