<svg version="1.1" id="Layer_1" xmlns="http://www.w3.org/2000/svg" xmlns:xlink="http://www.w3.org/1999/xlink" x="0px" y="0px"
	 width="100%" viewBox="0 0 1024 1024" enable-background="new 0 0 1024 1024" xml:space="preserve">
<path fill="#000000" opacity="1.000000" stroke="none" 
	d="
M376.155273,487.423706 
	C299.535797,488.348755 223.397125,486.814270 147.258163,487.400848 
	C144.373779,487.423096 141.024796,488.219025 139.317566,484.713928 
	C137.526443,481.036621 139.646500,478.477753 141.842468,475.798645 
	C165.901886,446.446289 189.993530,417.119629 213.906036,387.647736 
	C243.160599,351.591736 272.256348,315.406860 301.408905,279.268158 
	C304.021790,276.029144 306.436829,272.625000 309.140717,269.466125 
	C313.148193,264.784302 316.504669,264.518341 321.012939,268.764923 
	C325.739014,273.216675 330.185486,277.966125 334.736572,282.602722 
	C346.522797,294.610443 358.364380,306.564972 370.035461,318.683655 
	C373.070831,321.835419 374.821228,322.045959 377.663116,318.200684 
	C409.622070,274.957977 441.829865,231.899246 473.807281,188.670120 
	C484.696106,173.949921 495.124878,158.889404 505.764130,143.984589 
	C510.232788,137.724274 515.437988,137.450089 520.270142,143.585815 
	C535.209595,162.555618 550.028076,181.620758 564.867126,200.669479 
	C585.846436,227.600357 606.798035,254.552704 627.769775,281.489471 
	C635.544006,291.474945 643.323792,301.456238 651.142639,311.406830 
	C652.777344,313.487335 654.594788,315.424225 656.455688,317.574829 
	C659.730286,315.863098 661.664978,313.086761 663.731567,310.638336 
	C674.253723,298.172028 684.639282,285.589386 694.984070,272.974823 
	C701.938965,264.493927 705.898071,264.283142 712.847839,272.588989 
	C751.098694,318.303436 789.358887,364.010223 827.508362,409.809235 
	C845.305664,431.175140 862.913269,452.700165 880.466125,474.267609 
	C882.953003,477.323334 887.033813,480.328583 884.673523,485.152405 
	C882.377563,489.844757 877.740417,488.235199 873.928772,488.151886 
	C816.121826,486.888123 758.304626,487.130920 700.497864,487.557770 
	C657.012024,487.878906 613.529175,487.880951 570.045410,487.859680 
	C505.575623,487.828156 441.105865,487.579224 376.155273,487.423706 
M255.179794,411.688721 
	C226.678741,429.705414 199.532562,449.745728 170.927032,467.770752 
	C179.380142,468.718933 187.624268,469.319458 195.879303,469.613525 
	C210.179459,470.122894 224.490524,470.331879 238.789490,470.867279 
	C261.055023,471.701019 283.317078,472.642731 305.573761,473.684357 
	C309.894470,473.886597 311.067566,472.470947 310.403564,468.178802 
	C307.340485,448.379456 304.549316,428.538086 301.630493,408.716248 
	C300.509186,401.101379 299.307648,393.498260 298.033478,385.176636 
	C283.498871,394.167572 269.648163,402.735504 255.179794,411.688721 
M352.505463,402.893494 
	C345.160919,423.178314 337.816376,443.463104 330.205353,464.483917 
	C371.589050,437.175751 410.546692,407.511047 452.283508,378.908691 
	C425.810181,365.729156 401.762360,351.727203 376.319427,339.592163 
	C368.333954,360.860870 360.575867,381.523956 352.505463,402.893494 
M544.805664,410.184265 
	C544.031189,413.006653 542.279297,415.599121 542.706421,419.653595 
	C578.368774,416.232819 613.854858,412.828949 651.105835,409.255768 
	C627.636719,376.912323 605.088928,345.838531 581.675842,313.572266 
	C569.149719,346.438263 557.137756,377.955231 544.805664,410.184265 
M528.368591,434.367371 
	C527.710938,434.464478 527.041138,434.511261 526.397278,434.665802 
	C477.636047,446.372620 429.072113,458.852020 380.657928,471.916229 
	C375.773376,473.234283 370.682312,473.919769 364.977081,476.822052 
	C443.033722,476.326691 519.873291,476.442291 596.729126,478.303528 
	C576.647766,463.692871 556.538025,449.784332 536.411194,435.900543 
	C534.236633,434.400482 532.065308,432.589355 528.368591,434.367371 
M394.971069,433.524292 
	C386.383362,439.531830 377.829102,445.587891 369.198486,451.533112 
	C360.735901,457.362549 352.167938,463.042542 344.471619,470.072601 
	C401.678314,452.231903 460.489838,440.837402 518.887512,423.450317 
	C500.327362,411.064606 482.892670,399.463287 465.506287,387.790070 
	C463.011719,386.115234 461.403595,387.815735 459.713348,388.974457 
	C438.303192,403.652008 416.925964,418.377563 394.971069,433.524292 
M564.005127,296.259064 
	C541.785156,281.717957 519.565186,267.176849 496.830627,252.298996 
	C488.732819,290.161469 480.831055,327.107208 472.706604,365.094299 
	C474.973328,363.719696 476.270874,363.025452 477.470978,362.190979 
	C493.465088,351.069977 509.493317,339.997162 525.414368,328.772339 
	C538.205078,319.754425 550.867004,310.553772 563.572021,301.414734 
	C565.320007,300.157318 567.715393,298.934937 564.005127,296.259064 
M476.056305,293.811859 
	C478.300934,282.683167 481.542511,271.741913 482.044128,259.618774 
	C450.742218,284.529175 417.949402,307.103943 385.164978,330.998413 
	C410.289948,344.133209 434.526245,356.803436 458.909943,369.550690 
	C459.530090,368.034760 459.961823,367.300507 460.134827,366.509644 
	C465.376556,342.549133 470.592773,318.583099 476.056305,293.811859 
M275.440643,331.910950 
	C245.163498,369.029266 214.886353,406.147614 184.609207,443.265961 
	C195.286682,438.481537 204.425140,431.844727 213.799530,425.557068 
	C240.053848,407.947632 266.400421,390.475220 292.772064,373.041779 
	C296.409912,370.636932 298.170776,367.562347 298.692078,363.267090 
	C300.807648,345.836090 303.234131,328.442566 305.311310,311.007233 
	C305.932312,305.794769 307.573761,300.597412 306.925751,295.284760 
	C306.497833,295.085876 306.069885,294.886963 305.641937,294.688080 
	C295.726715,306.911530 285.811523,319.134979 275.440643,331.910950 
M487.817230,388.632507 
	C501.827942,398.001770 515.838623,407.371033 530.436523,417.132996 
	C543.055359,383.127625 555.728516,350.344849 566.068054,316.389313 
	C534.616089,336.214111 504.502136,357.287384 473.758118,379.051880 
	C478.799500,382.477631 483.016266,385.343048 487.817230,388.632507 
M670.644165,342.912567 
	C647.103027,332.414795 623.432983,322.239807 598.787659,313.982727 
	C618.637268,344.085052 638.919861,373.524994 661.922119,401.884247 
	C670.424072,385.603302 678.497986,370.162048 686.546204,354.707397 
	C687.698364,352.494873 686.921082,350.872314 684.763672,349.818268 
	C680.282349,347.628754 675.796936,345.447418 670.644165,342.912567 
M763.456970,442.760559 
	C762.215759,449.074249 760.974548,455.387939 759.516418,462.805176 
	C791.682617,466.862183 823.326843,470.853394 854.971069,474.844574 
	C855.262817,474.104156 855.554565,473.363739 855.846313,472.623322 
	C827.399353,451.505981 801.366211,427.358459 771.394043,406.159454 
	C768.676514,418.729279 766.168335,430.330750 763.456970,442.760559 
M534.402222,263.053925 
	C544.249084,269.336609 553.509460,276.568512 564.348083,281.621399 
	C550.259583,243.072876 533.832642,205.730179 516.590759,168.632721 
	C510.747040,190.202560 505.682037,211.649445 500.221100,232.995071 
	C499.096558,237.390640 500.304047,239.638367 503.821014,241.976791 
	C513.929932,248.697998 523.833191,255.728638 534.402222,263.053925 
M617.981140,477.978546 
	C620.097107,478.618652 620.532227,476.799103 621.199585,475.608673 
	C630.476562,459.059692 640.505798,442.926605 648.794800,425.832367 
	C649.402771,424.578491 650.475525,423.291077 649.248291,421.081604 
	C616.432678,423.732910 583.431274,426.652466 550.567810,431.480957 
	C572.848267,447.329254 595.621033,461.785370 617.981140,477.978546 
M638.588379,469.942902 
	C637.794678,471.908966 636.069153,473.459351 635.873901,476.756592 
	C668.078430,473.654388 699.802429,468.720123 731.613281,464.480469 
	C731.707825,464.053925 731.802368,463.627380 731.896912,463.200806 
	C709.801453,449.477936 687.705994,435.755066 665.050964,421.684631 
	C656.033691,438.143372 647.493713,453.730896 638.588379,469.942902 
M580.289368,287.291229 
	C581.677063,292.527649 585.114624,295.741089 590.091064,297.676392 
	C605.866516,303.811188 621.600769,310.051849 637.350952,316.251556 
	C606.464600,274.442261 574.728821,233.542953 542.366638,193.133026 
	C541.996155,193.346252 541.625732,193.559464 541.255249,193.772690 
	C554.177979,224.709351 567.100647,255.646011 580.289368,287.291229 
M436.580505,279.069946 
	C439.572021,276.683502 442.580841,274.318390 445.552094,271.906952 
	C458.464417,261.427429 471.375214,250.945969 484.263184,240.436523 
	C486.781555,238.382935 488.289795,235.776550 489.033966,232.506012 
	C493.424347,213.210770 497.968750,193.950562 502.793213,173.254608 
	C470.144745,214.727249 439.183472,255.607025 409.776276,297.792725 
	C419.530792,293.069977 427.428467,285.789948 436.580505,279.069946 
M726.418030,408.315125 
	C712.800903,410.346802 699.184204,412.381836 685.565918,414.405609 
	C684.022034,414.635010 682.487427,415.016113 681.989136,416.668274 
	C681.393372,418.643585 683.215576,419.219208 684.396240,419.962006 
	C703.991882,432.289764 723.606689,444.587250 743.244934,456.846954 
	C744.581787,457.681519 745.952698,458.946747 748.197510,457.787964 
	C753.147644,440.213684 756.580200,422.050354 760.431946,402.919250 
	C748.811096,404.777954 738.056091,406.498169 726.418030,408.315125 
M349.898865,352.428894 
	C337.688843,359.877716 325.554382,367.455261 313.220947,374.693787 
	C309.699005,376.760803 308.884277,379.295624 309.520142,382.935974 
	C310.203217,386.846710 310.731995,390.784790 311.305176,394.714294 
	C314.239380,414.830505 317.166168,434.947784 320.095551,455.064697 
	C320.412109,455.096527 320.728668,455.128326 321.045227,455.160126 
	C334.088257,419.942169 347.131317,384.724182 360.374420,348.966095 
	C355.705658,348.507660 353.306549,350.814148 349.898865,352.428894 
M339.518616,304.981262 
	C333.068329,298.967926 326.618073,292.954590 319.752777,286.554321 
	C316.519745,312.167358 313.403625,336.854279 310.165466,362.507843 
	C328.427002,351.591217 345.606079,341.321625 363.628387,330.547974 
	C355.245270,321.648041 347.631561,313.564911 339.518616,304.981262 
M744.893005,394.596039 
	C746.855713,394.269958 748.744019,393.751282 750.989685,392.152863 
	C734.089905,380.174011 716.443054,369.992371 698.993286,358.507019 
	C690.104797,373.342041 681.371948,387.722046 674.514587,402.962158 
	C676.763000,405.061951 678.657776,404.444122 680.662903,404.138519 
	C701.794922,400.917450 722.940247,397.782990 744.893005,394.596039 
M705.935913,347.438354 
	C720.221619,356.827362 733.569885,367.706879 749.601196,374.884338 
	C736.645020,347.697296 724.077759,320.591919 708.331299,294.317871 
	C706.185364,299.283569 706.290100,303.501099 705.784973,307.557129 
	C704.411560,318.584961 703.463989,329.665985 702.360596,340.727203 
	C702.093689,343.402435 702.651184,345.716553 705.935913,347.438354 
M769.673828,359.805328 
	C759.945374,348.372192 750.783936,336.442749 740.312378,325.199371 
	C738.680237,328.123138 740.465759,329.658386 741.304810,331.282013 
	C749.782227,347.685181 758.823547,363.820282 766.655457,380.523499 
	C770.354980,388.413422 775.356567,394.309509 782.476746,398.859192 
	C784.852661,400.377319 787.050415,402.185211 789.266846,403.939972 
	C805.123779,416.493591 820.964417,429.067719 836.810242,441.635345 
	C837.039978,441.421906 837.269775,441.208435 837.499512,440.994995 
	C815.041382,414.113556 792.583252,387.232117 769.673828,359.805328 
M669.172058,324.359680 
	C666.988831,326.474823 668.072510,327.809113 670.263855,328.846771 
	C674.769775,330.980469 679.286865,333.090576 683.793396,335.222961 
	C689.948669,338.135468 691.130188,337.306580 691.692383,330.628113 
	C692.386292,322.385681 693.512207,314.180450 694.368347,305.950470 
	C694.700256,302.759796 695.077087,299.534271 694.219849,295.226898 
	C685.576721,305.287598 677.596741,314.576324 669.172058,324.359680 
z"/>
<path fill="#000000" opacity="1.000000" stroke="none" 
	d="
M706.581299,696.505615 
	C703.790649,704.378357 703.790649,704.378845 696.081482,704.380188 
	C687.915710,704.381592 679.749878,704.396301 671.584229,704.371460 
	C669.784485,704.366028 667.919983,704.646301 665.738037,703.358398 
	C667.340515,696.306519 670.477905,689.703064 673.057190,682.944824 
	C688.188293,643.298523 703.437073,603.697266 718.646057,564.080688 
	C722.999756,552.739929 727.440308,541.431274 731.651672,530.037903 
	C732.888367,526.692139 734.808594,525.480286 738.355469,525.563843 
	C747.349548,525.775757 756.358948,525.846069 765.347900,525.545959 
	C769.576904,525.404663 771.669250,527.040955 773.134033,530.840088 
	C787.799744,568.877502 802.591187,606.866516 817.324219,644.877991 
	C824.179382,662.564514 830.999146,680.264832 837.787109,697.977234 
	C838.423218,699.637024 839.444580,701.277222 838.954651,703.199097 
	C838.040833,704.611389 836.600525,704.345886 835.332825,704.350159 
	C825.167419,704.384399 815.000854,704.292847 804.836792,704.414246 
	C801.843018,704.450012 800.371826,703.242615 799.402466,700.469727 
	C796.273560,691.519470 792.790710,682.691895 789.727051,673.720398 
	C788.553894,670.284912 786.644104,669.195435 783.113281,669.218811 
	C762.616394,669.354370 742.117432,669.373657 721.621033,669.208740 
	C717.786682,669.177917 716.022583,670.545715 714.838867,674.124939 
	C712.384399,681.546265 709.452515,688.809631 706.581299,696.505615 
M750.124512,578.505554 
	C743.080383,597.562378 736.036194,616.619263 728.781616,636.245544 
	C745.053833,636.245544 760.068054,636.245544 775.848267,636.245544 
	C768.059570,614.803894 760.506348,594.010376 752.822632,572.857788 
	C750.954712,574.562744 750.998047,576.347900 750.124512,578.505554 
z"/>
<path fill="#000000" opacity="1.000000" stroke="none" 
	d="
M426.790802,665.984131 
	C410.485199,622.029968 434.938263,580.158752 481.028992,572.524841 
	C514.224487,567.026733 551.098450,585.979553 560.192200,621.252319 
	C570.210999,660.113037 549.286011,696.134094 509.554352,706.316223 
	C476.744690,714.724365 439.907684,697.986755 426.790802,665.984131 
M462.447571,620.975342 
	C458.011841,629.485718 456.005005,638.357422 458.417084,647.895508 
	C463.149994,666.610901 478.384735,676.705811 494.482117,675.395325 
	C518.720093,673.422119 531.105652,650.955994 526.600525,631.950989 
	C522.285889,613.749817 508.307709,603.609558 491.413483,603.732910 
	C479.315826,603.821228 469.481384,609.854492 462.447571,620.975342 
z"/>
<path fill="#000000" opacity="1.000000" stroke="none" 
	d="
M217.624344,686.888428 
	C217.732025,691.654907 217.755478,695.984985 217.906494,700.310669 
	C218.025513,703.719421 216.175064,704.450073 213.188187,704.412964 
	C204.359985,704.303284 195.525223,704.212952 186.701874,704.447449 
	C182.706009,704.553650 181.568970,703.063660 181.590500,699.219543 
	C181.721100,675.896851 181.653595,652.573059 181.652298,629.249634 
	C181.651138,608.258545 181.534134,587.266296 181.740097,566.277283 
	C181.784897,561.711243 180.469421,560.168457 175.801437,560.282837 
	C163.813751,560.576782 151.812424,560.268677 139.820084,560.443665 
	C135.984894,560.499695 134.457092,559.327515 134.588196,555.322205 
	C134.838776,547.666992 134.952728,539.982971 134.561478,532.339661 
	C134.310928,527.444946 136.372421,526.540283 140.677979,526.577332 
	C160.001648,526.743896 179.327606,526.648804 198.652725,526.646362 
	C218.477615,526.643860 238.303925,526.764282 258.126373,526.542969 
	C262.774750,526.491028 264.717194,527.631104 264.443939,532.620850 
	C264.052826,539.763428 264.136292,546.950012 264.401886,554.103577 
	C264.558838,558.329590 262.922882,559.533508 258.884399,559.467346 
	C246.726135,559.268311 234.561325,559.489807 222.401871,559.331604 
	C218.833679,559.285217 217.357758,560.196960 217.476105,564.101807 
	C218.197464,587.900452 217.389328,611.708191 217.562500,635.516296 
	C217.685883,652.479858 218.672150,669.476074 217.624344,686.888428 
z"/>
<path fill="#000000" opacity="1.000000" stroke="none" 
	d="
M581.649597,603.999878 
	C581.650574,581.347229 581.739197,559.193970 581.574829,537.042603 
	C581.544250,532.917847 582.518616,530.725708 586.953491,529.926208 
	C596.557129,528.194763 606.067932,525.948120 615.504028,523.936218 
	C616.823975,525.724243 616.330444,527.438354 616.331360,529.039001 
	C616.362610,585.669739 616.322388,642.300659 616.457275,698.931091 
	C616.466797,702.915405 615.332703,704.152100 611.406555,704.028137 
	C603.252930,703.770813 595.080566,703.750305 586.927002,703.998596 
	C582.678711,704.127991 581.562927,702.455322 581.578735,698.440430 
	C581.702332,667.127319 581.648743,635.813538 581.649597,603.999878 
z"/>
<path fill="#000000" opacity="1.000000" stroke="none" 
	d="
M337.686279,700.842529 
	C337.661774,661.232300 337.748016,622.109070 337.538239,582.987366 
	C337.510986,577.904907 338.958374,576.324463 343.998596,576.559204 
	C352.304657,576.945984 360.643066,576.754456 368.965027,576.626648 
	C372.192078,576.577148 373.491638,577.813232 373.322083,581.028381 
	C373.158478,584.130432 373.286713,587.247925 373.286713,591.288208 
	C378.931061,585.990051 383.119812,580.654480 389.176270,577.308411 
	C397.031097,572.968750 405.241669,572.489685 413.814301,573.710022 
	C415.400208,573.935791 416.245789,574.672607 416.247040,576.266602 
	C416.255951,587.517761 416.251801,598.768921 416.251801,610.578369 
	C411.124512,609.672058 407.174561,607.541382 402.666656,607.037109 
	C385.064545,605.068176 373.465363,617.717163 373.374359,632.741394 
	C373.243286,654.382935 373.345184,676.025818 373.319611,697.668091 
	C373.311707,704.344116 373.269806,704.359131 366.779846,704.369995 
	C358.622375,704.383606 350.464722,704.388306 342.307373,704.354797 
	C340.165955,704.346008 337.724945,704.636780 337.686279,700.842529 
z"/>
<path fill="#000000" opacity="1.000000" stroke="none" 
	d="
M313.332947,628.000122 
	C313.319458,651.822083 313.208923,675.144775 313.378082,698.465393 
	C313.410828,702.982422 312.101532,704.644714 307.443695,704.462036 
	C299.127228,704.135864 290.785675,704.239990 282.460876,704.433777 
	C278.737762,704.520386 277.591492,703.112183 277.599854,699.479004 
	C277.690277,660.164978 277.691345,620.850525 277.592621,581.536560 
	C277.583435,577.878845 278.746887,576.520386 282.452850,576.601257 
	C291.111145,576.790161 299.779144,576.789612 308.437531,576.603271 
	C312.122467,576.524048 313.386658,577.844238 313.355286,581.522766 
	C313.224640,596.847473 313.320618,612.174133 313.332947,628.000122 
z"/>
<path fill="#000000" opacity="1.000000" stroke="none" 
	d="
M872.994019,576.658203 
	C887.348450,576.649536 887.348145,576.649536 887.348022,590.468689 
	C887.347595,626.268616 887.352112,662.068481 887.343140,697.868408 
	C887.341492,704.356567 887.316223,704.368225 880.674377,704.376404 
	C871.544434,704.387634 862.414490,704.379150 852.938293,704.379150 
	C852.938293,661.803589 852.938293,619.757080 852.938293,576.658508 
	C859.370300,576.658508 865.932983,576.658508 872.994019,576.658203 
z"/>
<path fill="#000000" opacity="1.000000" stroke="none" 
	d="
M854.854431,558.156372 
	C845.321167,545.620911 846.514832,532.596436 857.596375,525.203674 
	C864.955017,520.294556 875.358459,520.454468 881.942627,525.577881 
	C888.370117,530.579468 891.138855,540.126831 888.466980,548.075928 
	C885.277405,557.564941 878.118469,563.118958 869.183655,563.444092 
	C863.735840,563.642334 859.015503,562.301575 854.854431,558.156372 
z"/>
<path fill="#000000" opacity="1.000000" stroke="none" 
	d="
M294.242462,521.671875 
	C305.366180,521.712158 311.851227,525.991943 314.562012,534.775818 
	C317.287292,543.606689 314.032593,553.689148 306.825623,558.741699 
	C299.122345,564.142212 289.371582,564.213867 282.259216,558.730103 
	C276.003784,553.906982 274.012543,547.125977 274.943085,539.679993 
	C275.963959,531.511230 280.291168,525.482422 288.464600,522.847778 
	C290.188141,522.292236 292.017029,522.063416 294.242462,521.671875 
z"/>
</svg>