<?xml version="1.0" encoding="UTF-8" standalone="no"?>
<!-- Generator: Adobe Illustrator 27.1.1, SVG Export Plug-In . SVG Version: 6.00 Build 0)  -->

<svg
   version="1.1"
   id="Layer_1"
   x="0px"
   y="0px"
   viewBox="0 0 1064.5 693.7"
   style="enable-background:new 0 0 1064.5 693.7;"
   xml:space="preserve"
   sodipodi:docname="Logo.svg"
   inkscape:version="1.4.2 (ebf0e940d0, 2025-05-08)"
   xmlns:inkscape="http://www.inkscape.org/namespaces/inkscape"
   xmlns:sodipodi="http://sodipodi.sourceforge.net/DTD/sodipodi-0.dtd"
   xmlns="http://www.w3.org/2000/svg"
   xmlns:svg="http://www.w3.org/2000/svg"><defs
   id="defs9" /><sodipodi:namedview
   id="namedview9"
   pagecolor="#ffffff"
   bordercolor="#000000"
   borderopacity="0.25"
   inkscape:showpageshadow="2"
   inkscape:pageopacity="0.0"
   inkscape:pagecheckerboard="0"
   inkscape:deskcolor="#d1d1d1"
   inkscape:zoom="2.3627987"
   inkscape:cx="927.50176"
   inkscape:cy="575.8002"
   inkscape:window-width="2560"
   inkscape:window-height="1368"
   inkscape:window-x="1920"
   inkscape:window-y="0"
   inkscape:window-maximized="1"
   inkscape:current-layer="Layer_1" />
<path
   d="M1057.5,477.7c-25-30.7-50.1-61.4-75.5-91.9c-54.4-65.3-108.9-130.4-163.5-195.6c-9.9-11.8-15.6-11.5-25.5,0.5  c-14.7,18-29.6,35.9-44.5,53.7c-3,3.5-5.7,7.4-10.4,9.9c-2.7-3.1-5.2-5.8-7.6-8.8c-11.1-14.2-22.2-28.4-33.3-42.7  c-29.9-38.4-59.8-76.8-89.7-115.2C586.4,60.6,565.3,33.4,544,6.4c-6.9-8.8-14.3-8.4-20.7,0.6c-15.2,21.3-30,42.7-45.5,63.7  c-45.6,61.6-91.5,123-137.1,184.6c-4,5.5-6.5,5.2-10.9,0.7c-16.7-17.3-33.5-34.3-50.3-51.4c-6.5-6.6-12.8-13.4-19.6-19.7  c-6.4-6-11.2-5.7-16.9,1c-3.8,4.5-7.3,9.4-11,14c-41.6,51.5-83,103.1-124.7,154.5c-34.1,42-68.4,83.8-102.7,125.7  c-3.1,3.8-6.1,7.5-3.6,12.7c2.4,5,7.2,3.9,11.3,3.8c108.5-0.8,217.1,1.4,326.3,0c92.6,0.2,184.5,0.6,276.4,0.6c62,0,124,0,186-0.4  c82.4-0.6,164.8-1,247.2,0.8c5.4,0.1,12,2.4,15.3-4.3C1066.8,486.4,1061,482.1,1057.5,477.7z M857.7,265.2c14.9,16,28,33,41.9,49.3  c32.7,39.1,64.7,77.4,96.7,115.7c-0.3,0.3-0.7,0.6-1,0.9c-22.6-17.9-45.2-35.9-67.8-53.7c-3.2-2.5-6.3-5.1-9.7-7.2  c-10.1-6.5-17.3-14.9-22.6-26.1c-11.2-23.8-24.1-46.8-36.2-70.2C857.9,271.6,855.4,269.4,857.7,265.2z M803.6,287.4  c1.6-15.8,2.9-31.6,4.9-47.3c0.7-5.8,0.6-11.8,3.6-18.9c22.5,37.4,40.4,76.1,58.8,114.8c-22.9-10.2-41.9-25.7-62.2-39.1  C804,294.5,803.2,291.2,803.6,287.4z M798.8,312.7c24.9,16.4,50,30.9,74.1,48c-3.2,2.3-5.9,3-8.7,3.5c-31.3,4.5-61.4,9-91.6,13.6  c-2.9,0.4-5.6,1.3-8.8-1.7C773.7,354.4,786.1,333.9,798.8,312.7z M756.3,264c12-13.9,23.4-27.2,35.7-41.5c1.2,6.1,0.7,10.7,0.2,15.3  c-1.2,11.7-2.8,23.4-3.8,35.2c-0.8,9.5-2.5,10.7-11.3,6.5c-6.4-3-12.9-6-19.3-9.1C754.7,269,753.2,267.1,756.3,264z M758.4,290.5  c7.4,3.6,13.7,6.7,20.1,9.9c3.1,1.5,4.2,3.8,2.6,7c-11.5,22-23,44-35.1,67.2c-32.8-40.4-61.7-82.4-90-125.3  C691.1,261,724.8,275.5,758.4,290.5z M609.3,252.7c-14.7,48.4-32.8,95.1-50.8,143.6c-20.8-13.9-40.8-27.3-60.8-40.6  c-6.8-4.7-12.9-8.8-20-13.7C521.5,311,564.5,280.9,609.3,252.7z M476.2,322.1c11.6-54.1,22.8-106.8,34.4-160.8  c32.4,21.2,64.1,41.9,95.8,62.7c5.3,3.8,1.9,5.6-0.6,7.3c-18.1,13-36.2,26.1-54.4,39c-22.7,16-45.5,31.8-68.3,47.6  C481.3,319.2,479.4,320.2,476.2,322.1z M579,386.4c17.6-45.9,34.7-90.9,52.6-137.7c33.4,46,65.5,90.3,99,136.4  c-53.1,5.1-103.7,9.9-154.5,14.8C575.4,394.1,577.9,390.4,579,386.4z M575.5,77c46.1,57.6,91.4,115.9,135.4,175.5  c-22.5-8.8-44.9-17.7-67.4-26.5c-7.1-2.8-12-7.3-14-14.8c-18.8-45.1-37.2-89.2-55.6-133.3C574.5,77.6,575,77.3,575.5,77z   M538.8,42.1c24.6,52.9,48,106.1,68.1,161.1c-15.5-7.2-28.7-17.5-42.7-26.5c-15.1-10.4-29.2-20.5-43.6-30c-5-3.3-6.7-6.5-5.1-12.8  C523.2,103.4,530.4,72.8,538.8,42.1z M519.1,48.6c-6.9,29.5-13.4,57-19.6,84.5c-1.1,4.7-3.2,8.4-6.8,11.3  c-18.4,15-36.8,29.9-55.2,44.9c-4.2,3.4-8.5,6.8-12.8,10.2c-13,9.6-24.3,20-38.2,26.7C428.4,166,472.5,107.8,519.1,48.6z   M489.5,171.8c-0.7,17.3-5.3,32.9-8.5,48.7c-7.8,35.3-15.2,69.5-22.7,103.6c-0.2,1.1-0.9,2.2-1.7,4.3c-34.8-18.2-69.3-36.2-105.1-55  C398.1,239.4,444.9,207.3,489.5,171.8z M258.2,210.1c9.8,9.1,19,17.7,28.2,26.3c11.6,12.2,22.4,23.8,34.4,36.5  c-25.7,15.4-50.2,30-76.2,45.6C249.1,281.9,253.6,246.7,258.2,210.1z M195,274.8c14.8-18.2,28.9-35.6,43.1-53.1  c0.6,0.3,1.2,0.6,1.8,0.8c0.9,7.6-1.4,15-2.3,22.4c-3,24.8-6.4,49.7-9.4,74.5c-0.7,6.1-3.3,10.5-8.4,13.9  c-37.6,24.9-75.2,49.8-112.6,74.9c-13.4,9-26.4,18.4-41.6,25.2C108.7,380.6,151.8,327.7,195,274.8z M237.9,476.9  c-31.7-1.5-63.4-2.8-95.2-4c-20.4-0.8-40.8-1.1-61.2-1.8c-11.8-0.4-23.5-1.3-35.6-2.6c40.8-25.7,79.5-54.3,120.1-79.9  c20.6-12.8,40.4-25,61.1-37.8c1.8,11.9,3.5,22.7,5.1,33.6c4.2,28.3,8.1,56.5,12.5,84.8C245.8,475.2,244.1,477.2,237.9,476.9z   M258.7,450.4c-4.2-28.7-8.4-57.3-12.5-86c-0.8-5.6-1.6-11.2-2.6-16.8c-0.9-5.2,0.3-8.8,5.3-11.8c17.6-10.3,34.9-21.1,52.3-31.7  c4.9-2.3,8.3-5.6,14.9-4.9c-18.9,51-37.5,101.2-56.1,151.4C259.6,450.5,259.1,450.4,258.7,450.4z M304.9,376  c11.5-30.5,22.6-59.9,33.9-90.2c36.3,17.3,70.5,37.3,108.3,56.1c-59.5,40.8-115,83.1-174,122C283.9,433.8,294.4,404.9,304.9,376z   M328.7,445.3c12.3-8.5,24.5-17.1,36.7-25.7c31.3-21.6,61.8-42.6,92.3-63.5c2.4-1.6,4.7-4.1,8.3-1.7c24.8,16.6,49.6,33.2,76.1,50.8  c-83.3,24.8-167.1,41-248.6,66.5C304.4,461.7,316.6,453.6,328.7,445.3z M322.6,481.4c8.1-4.1,15.4-5.1,22.4-7  c69-18.6,138.2-36.4,207.8-53.1c0.9-0.2,1.9-0.3,2.8-0.4c5.3-2.5,8.4,0,11.5,2.2c28.7,19.8,57.4,39.6,86,60.4  C543.4,480.8,433.9,480.7,322.6,481.4z M683.3,483c-31.9-23.1-64.3-43.7-96.1-66.3c46.8-6.9,93.9-11,140.7-14.8  c1.8,3.2,0.2,5-0.7,6.8c-11.8,24.4-26.1,47.4-39.3,71C686.9,481.4,686.3,483.9,683.3,483z M845.3,463.8  c-45.3,6-90.6,13.1-136.5,17.5c0.3-4.7,2.7-6.9,3.9-9.7c12.7-23.1,24.9-45.3,37.7-68.8c32.3,20.1,63.8,39.6,95.3,59.2  C845.5,462.6,845.4,463.2,845.3,463.8z M861.9,452.9c-28-17.5-56-35-83.9-52.6c-1.7-1.1-4.3-1.9-3.4-4.7c0.7-2.4,2.9-2.9,5.1-3.2  c19.4-2.9,38.8-5.8,58.2-8.7c16.6-2.6,31.9-5,48.5-7.7c-5.5,27.3-10.4,53.2-17.4,78.2C865.7,455.9,863.8,454.1,861.9,452.9z   M1021.1,478.6c-45.1-5.7-90.2-11.4-136.1-17.1c2.1-10.6,3.8-19.6,5.6-28.6c3.9-17.7,7.4-34.3,11.3-52.2  c42.7,30.2,79.8,64.6,120.4,94.7C1022,476.4,1021.5,477.5,1021.1,478.6z"
   id="path1" />
<g
   id="g9">
	<path
   d="M23.4,557.7v27.2h68v108.8h27.2V584.9h68v-27.2H23.4z"
   id="path2" />
	<path
   d="M208.9,583.4v110.3h22.1V583.4H208.9z"
   id="path3" />
	<path
   d="M285.4,583.4c-8.7,0-16.2,3.2-22.7,9.6c-6.5,6.4-9.7,13.9-9.7,22.6v78.1H275v-77.4c0-3,1.1-5.5,3.2-7.6   c2.1-2.1,4.7-3.2,7.6-3.2h77.4v-22.1H285.4z"
   id="path4" />
	<path
   d="M507,593.1c-6.4-6.5-13.9-9.7-22.6-9.7h-67.7c-8.7,0-16.2,3.2-22.7,9.7c-6.5,6.5-9.7,14-9.7,22.7v45.7   c0,8.7,3.2,16.2,9.7,22.6c6.5,6.4,14,9.6,22.7,9.6h67.7c8.5,0,16-3.2,22.5-9.7c6.5-6.5,9.7-14,9.7-22.5v-45.7   C516.6,607.1,513.4,599.6,507,593.1z M494.6,660.8c0,2.8-1.1,5.3-3.2,7.5c-2.1,2.2-4.6,3.3-7.4,3.3h-66.9c-2.9,0-5.5-1.1-7.6-3.2   c-2.1-2.1-3.2-4.7-3.2-7.6v-44.6c0-3,1.1-5.5,3.2-7.6c2.1-2.1,4.7-3.2,7.6-3.2H484c2.9,0,5.4,1.1,7.5,3.2c2.1,2.1,3.1,4.7,3.1,7.6   V660.8z"
   id="path5" />
	<path
   d="M571.6,671.6c-2.8,0-5.3-1.1-7.5-3.3c-2.2-2.2-3.3-4.7-3.3-7.5v-77.4h-22.1v78.1c0,8.7,3.2,16.2,9.7,22.6   c6.5,6.4,14,9.6,22.7,9.6H649v-22.1H571.6z"
   id="path6" />
	<g
   id="g8">
		<path
   d="M922.5,569.7c-7.9-8-17.2-11.9-27.8-11.9h-83.4c-10.7,0-20,4-28,11.9c-8,8-12,17.3-12,28v95.9h27.2v-95.3    c0-3.6,1.3-6.8,3.9-9.4c2.6-2.6,5.7-3.9,9.4-3.9h82.3c3.6,0,6.7,1.3,9.2,3.9c2.5,2.6,3.8,5.7,3.8,9.4v95.3h27.2v-95.9    C934.3,587,930.3,577.7,922.5,569.7z"
   id="path7" />
		<path
   id="path8"
   d="m 1041.1,584.9 v -27.2 h -74.3 v 27.2 h 23.5 v 81.5 h -23.5 v 27.2 h 74.3 v -27.2 h -23.5 v -81.5 z" />
		<line
   x1="907.1"
   y1="666.4"
   x2="907.1"
   y2="639.2"
   id="line8" />
		<path
   id="circle8"
   d="m 873.39999,625.59998 a 20.6,20.6 0 0 1 -20.6,20.6 20.6,20.6 0 0 1 -20.6,-20.6 20.6,20.6 0 0 1 20.6,-20.6 20.6,20.6 0 0 1 20.6,20.6 z" />
	</g>
</g>
</svg>
