<?xml version="1.0" encoding="UTF-8" standalone="no"?>
<!-- Generator: Adobe Illustrator 27.1.1, SVG Export Plug-In . SVG Version: 6.00 Build 0)  -->

<svg
   version="1.1"
   id="Layer_1"
   x="0px"
   y="0px"
   viewBox="0 0 532.2051 249.02048"
   xml:space="preserve"
   width="532.20508"
   height="249.02048"
   xmlns="http://www.w3.org/2000/svg"
   xmlns:svg="http://www.w3.org/2000/svg"><defs
   id="defs9" />
<path
   d="m 528.71476,238.84013 c -12.5,-15.35 -25.05,-30.7 -37.74999,-45.95 -27.2,-32.65 -54.45,-65.2 -81.75,-97.799997 -4.95,-5.9 -7.8,-5.75 -12.75,0.25 -7.35,8.999997 -14.8,17.949997 -22.25,26.849997 -1.5,1.75 -2.85,3.7 -5.2,4.95 -1.35,-1.55 -2.6,-2.9 -3.8,-4.4 -5.55,-7.1 -11.1,-14.2 -16.65,-21.35 -14.95,-19.199997 -29.9,-38.399997 -44.85,-57.599997 -10.55,-13.5 -21.1,-27.1 -31.75,-40.6000004 -3.45,-4.4 -7.15,-4.2 -10.35,0.3 -7.6,10.6500004 -15,21.3500004 -22.75,31.8500004 -22.8,30.8 -45.75,61.5 -68.55,92.299997 -2,2.75 -3.25,2.6 -5.45,0.35 -8.35,-8.65 -16.75,-17.15 -25.15,-25.7 -3.25,-3.299997 -6.4,-6.699997 -9.8,-9.849997 -3.2,-3 -5.6,-2.85 -8.45,0.5 -1.9,2.25 -3.65,4.7 -5.5,7 -20.800002,25.749997 -41.500002,51.549997 -62.350002,77.249997 -17.05001,21 -34.20001,41.9 -51.3500105,62.85 -1.54999997,1.9 -3.04999997,3.75 -1.79999997,6.35 1.19999997,2.5 3.59999997,1.95 5.64999997,1.9 54.2500105,-0.4 108.5500125,0.7 163.1500125,0 46.3,0.1 92.25,0.3 138.2,0.3 31,0 62,0 93,-0.2 41.2,-0.3 82.4,-0.5 123.59999,0.4 2.7,0.05 6,1.2 7.65,-2.15 1.65,-3.45 -1.25,-5.6 -3,-7.8 z m -99.89999,-106.25 c 7.45,8 14,16.5 20.95,24.65 16.35,19.55 32.35,38.7 48.35,57.85 -0.15,0.15 -0.35,0.3 -0.5,0.45 -11.3,-8.95 -22.6,-17.95 -33.9,-26.85 -1.6,-1.25 -3.15,-2.55 -4.85,-3.6 -5.05,-3.25 -8.65,-7.45 -11.3,-13.05 -5.6,-11.9 -12.05,-23.4 -18.1,-35.1 -0.55,-1.15 -1.8,-2.25 -0.65,-4.35 z m -27.05,11.1 c 0.8,-7.9 1.45,-15.8 2.45,-23.65 0.35,-2.9 0.3,-5.9 1.8,-9.45 11.25,18.7 20.2,38.05 29.4,57.4 -11.45,-5.1 -20.95,-12.85 -31.1,-19.55 -2.35,-1.2 -2.75,-2.85 -2.55,-4.75 z m -2.4,12.65 c 12.45,8.2 25,15.45 37.05,24 -1.6,1.15 -2.95,1.5 -4.35,1.75 -15.65,2.25 -30.7,4.5 -45.8,6.8 -1.45,0.2 -2.8,0.65 -4.4,-0.85 4.95,-10.85 11.15,-21.1 17.5,-31.7 z m -21.25,-24.35 c 6,-6.95 11.7,-13.6 17.85,-20.75 0.6,3.05 0.35,5.35 0.1,7.65 -0.6,5.85 -1.4,11.7 -1.9,17.6 -0.4,4.75 -1.25,5.35 -5.65,3.25 -3.2,-1.5 -6.45,-3 -9.65,-4.55 -1.55,-0.7 -2.3,-1.65 -0.75,-3.2 z m 1.05,13.25 c 3.7,1.8 6.85,3.35 10.05,4.95 1.55,0.75 2.1,1.9 1.3,3.5 -5.75,11 -11.5,22 -17.55,33.6 -16.4,-20.2 -30.85,-41.2 -45,-62.65 17.55,5.85 34.4,13.1 51.2,20.6 z m -74.55,-18.9 c -7.35,24.2 -16.4,47.55 -25.4,71.8 -10.4,-6.95 -20.4,-13.65 -30.4,-20.3 -3.4,-2.35 -6.45,-4.4 -10,-6.85 21.9,-15.5 43.4,-30.55 65.8,-44.65 z m -66.55,34.7 c 5.8,-27.05 11.4,-53.4 17.2,-80.399997 16.2,10.6 32.05,20.949997 47.9,31.349997 2.65,1.9 0.95,2.8 -0.3,3.65 -9.05,6.5 -18.1,13.05 -27.2,19.5 -11.35,8 -22.75,15.9 -34.15,23.8 -0.9,0.65 -1.85,1.15 -3.45,2.1 z m 51.4,32.15 c 8.8,-22.95 17.35,-45.45 26.3,-68.85 16.7,23 32.75,45.15 49.5,68.2 -26.55,2.55 -51.85,4.95 -77.25,7.4 -0.35,-2.9 0.9,-4.75 1.45,-6.75 z m -1.75,-154.699997 c 23.05,28.8 45.7,57.95 67.7,87.749997 -11.25,-4.4 -22.45,-8.85 -33.7,-13.25 -3.55,-1.4 -6,-3.65 -7,-7.4 -9.4,-22.549997 -18.6,-44.599997 -27.8,-66.649997 0.3,-0.15 0.55,-0.3 0.8,-0.45 z m -18.35,-17.45 c 12.3,26.45 24,53.05 34.05,80.549997 -7.75,-3.599997 -14.35,-8.749997 -21.35,-13.249997 -7.55,-5.2 -14.6,-10.25 -21.8,-15 -2.5,-1.65 -3.35,-3.25 -2.55,-6.4 3.85,-15.25 7.45,-30.55 11.65,-45.9 z m -9.85,3.25 c -3.45,14.75 -6.7,28.5 -9.8,42.25 -0.55,2.35 -1.6,4.2 -3.4,5.65 -9.2,7.5 -18.4,14.95 -27.6,22.45 -2.1,1.7 -4.25,3.4 -6.4,5.1 -6.5,4.799997 -12.15,9.999997 -19.1,13.349997 20.95,-30.099997 43,-59.199997 66.3,-88.799997 z m -14.8,61.6 c -0.35,8.65 -2.65,16.449997 -4.25,24.349997 -3.9,17.65 -7.6,34.75 -11.35,51.8 -0.1,0.55 -0.45,1.1 -0.85,2.15 -17.4,-9.1 -34.65,-18.1 -52.55,-27.5 23.3,-17 46.7,-33.05 69,-50.799997 z m -115.65,19.149997 c 4.9,4.55 9.5,8.85 14.1,13.15 5.8,6.1 11.2,11.9 17.2,18.25 -12.85,7.7 -25.1,15 -38.1,22.8 2.25,-18.3 4.5,-35.9 6.8,-54.2 z m -31.600002,32.35 c 7.400002,-9.1 14.450002,-17.8 21.550002,-26.55 0.3,0.15 0.6,0.3 0.9,0.4 0.45,3.8 -0.7,7.5 -1.15,11.2 -1.5,12.4 -3.2,24.85 -4.7,37.25 -0.35,3.05 -1.65,5.25 -4.2,6.95 -18.800002,12.45 -37.600002,24.9 -56.300002,37.45 -6.70001,4.5 -13.20001,9.2 -20.80001,12.6 21.55001,-26.4 43.10001,-52.85 64.70001,-79.3 z m 21.450002,101.05 c -15.85,-0.75 -31.700002,-1.4 -47.600002,-2 -10.2,-0.4 -20.4,-0.55 -30.60001,-0.9 -5.9,-0.2 -11.75,-0.65 -17.8,-1.3 20.4,-12.85 39.75001,-27.15 60.05001,-39.95 10.3,-6.4 20.200002,-12.5 30.550002,-18.9 0.9,5.95 1.75,11.35 2.55,16.8 2.1,14.15 4.05,28.25 6.25,42.4 0.55,3 -0.3,4 -3.4,3.85 z m 10.4,-13.25 c -2.1,-14.35 -4.2,-28.65 -6.25,-43 -0.4,-2.8 -0.8,-5.6 -1.3,-8.4 -0.45,-2.6 0.15,-4.4 2.65,-5.9 8.8,-5.15 17.45,-10.55 26.15,-15.85 2.45,-1.15 4.15,-2.8 7.45,-2.45 -9.45,25.5 -18.75,50.6 -28.05,75.7 -0.2,-0.05 -0.45,-0.1 -0.65,-0.1 z m 23.1,-37.2 c 5.75,-15.25 11.3,-29.95 16.95,-45.1 18.15,8.65 35.25,18.65 54.15,28.05 -29.75,20.4 -57.5,41.55 -87,61 5.4,-15.05 10.65,-29.5 15.9,-43.95 z m 11.9,34.65 c 6.15,-4.25 12.25,-8.55 18.35,-12.85 15.65,-10.8 30.9,-21.3 46.15,-31.75 1.2,-0.8 2.35,-2.05 4.15,-0.85 12.4,8.3 24.8,16.6 38.05,25.4 -41.65,12.4 -83.55,20.5 -124.3,33.25 5.45,-5 11.55,-9.05 17.6,-13.2 z m -3.05,18.05 c 4.05,-2.05 7.7,-2.55 11.2,-3.5 34.5,-9.3 69.1,-18.2 103.9,-26.55 0.45,-0.1 0.95,-0.15 1.4,-0.2 2.65,-1.25 4.2,0 5.75,1.1 14.35,9.9 28.7,19.8 43,30.2 -54.85,-1.35 -109.6,-1.4 -165.25,-1.05 z m 180.35,0.8 c -15.95,-11.55 -32.15,-21.85 -48.05,-33.15 23.4,-3.45 46.95,-5.5 70.35,-7.4 0.9,1.6 0.1,2.5 -0.35,3.4 -5.9,12.2 -13.05,23.7 -19.65,35.5 -0.5,0.85 -0.8,2.1 -2.3,1.65 z m 81,-9.6 c -22.65,3 -45.3,6.55 -68.25,8.75 0.15,-2.35 1.35,-3.45 1.95,-4.85 6.35,-11.55 12.45,-22.65 18.85,-34.4 16.15,10.05 31.9,19.8 47.65,29.6 -0.1,0.3 -0.15,0.6 -0.2,0.9 z m 8.3,-5.45 c -14,-8.75 -28,-17.5 -41.95,-26.3 -0.85,-0.55 -2.15,-0.95 -1.7,-2.35 0.35,-1.2 1.45,-1.45 2.55,-1.6 9.7,-1.45 19.4,-2.9 29.1,-4.35 8.3,-1.3 15.95,-2.5 24.25,-3.85 -2.75,13.65 -5.2,26.6 -8.7,39.1 -1.65,0.85 -2.6,-0.05 -3.55,-0.65 z m 79.59999,12.85 c -22.54999,-2.85 -45.09999,-5.7 -68.04999,-8.55 1.05,-5.3 1.9,-9.8 2.8,-14.3 1.95,-8.85 3.7,-17.15 5.65,-26.1 21.35,15.1 39.9,32.3 60.19999,47.35 -0.15,0.5 -0.4,1.05 -0.6,1.6 z"
   id="path1"
   style="stroke-width:0.5" />

</svg>
