<?xml version="1.0" encoding="UTF-8"?>
<svg id="Layer_1" data-name="Layer 1" xmlns="http://www.w3.org/2000/svg" viewBox="0 0 1110.43 749.23">
  <path d="m831.07,213.49l-.34-.73-.11.75-73.16,75.27L555.43,31.73l-.3-.72-.15.74-195.33,260.56-87.33-79.58-.2-.18L31.95,508.88l-.33.41,242.68.57-.04.1.38-.1,617.85,1.46.24.19.04-.19,185.49.44h.53s-247.73-298.27-247.73-298.27Zm87.41,186.97l-86.57-185.18,245,294.98-158.43-109.8Zm-336.08,26.38l-306.4,82.14,212.58-147.49,94.16,64.43-.34.93Zm183.14-15.87l-117.53-159.44,109.29,37.83.13.17.05-.05,56.61,39.24-48.55,82.26Zm.05.91l.99,1.35-1.87.14.88-1.48Zm-118.76-160.18l-63.9,173.73-93.9-64.25,157.8-109.49Zm-157.87,108.93l39.03-192.93,118.91,83.34-157.94,109.59Zm158.57-109.78l-91.36-217.37,200.57,255.17-109.21-37.8Zm-92.22-218.13l91.47,217.63-118.67-83.17,27.2-134.46Zm-66.89,328.1l-128.25-68.16,167.29-124.79-39.04,192.94Zm-128.59-67.77l128.29,68.17-212.89,147.71,84.6-215.88Zm-85.01,215.57l-20.31-146.14,104.67-69.14-84.36,215.28Zm-20.27-146.77l17.81-148.41,86.93,79.22-104.74,69.19Zm-.55.36L33.36,507.94l238.43-294.18-17.81,148.45Zm.04.57l20.37,146.58-241.41-.57,221.05-146.01Zm329.14,63.43l.72.5-.93.07.21-.56Zm.18-.48l64.06-174.16,117.86,159.88-1.16,1.97-179.41,13.23-1.35-.92Zm180.45-11.79l-56.87,96.34-121.57-83.18,178.44-13.16Zm.61-.04l2.57-.19,124.88,97.12-184.41-.44,56.96-96.5Zm3.31-.25l150.26-12.73-25.54,109.73-124.72-97Zm-.54-.46l-1.3-1.77,48.64-82.41,103.07,71.43-150.4,12.74Zm47.53-84.65l16.29-114.04,86.68,185.4-102.97-71.37Zm-.46-.32l-56.4-39.09,72.67-74.77-16.27,113.86Zm-286.65-161.08l-166.67,124.32L554.74,32.9l-27.16,134.23Zm55.04,260.17l1.93-.14,121.64,83.23-429.7-1.02,306.13-82.07Zm335.81-26.25l159.02,110.22-184.57-.44,25.55-109.78ZM44,593.91h163.2v.5h-81.35v123.8h-.5v-123.8H44v-.5Zm196.3,14h.5v110.3h-.5v-110.3Zm66.18,10.23h77.32v.5h-77.32c-11.93,0-21.63,9.7-21.63,21.63v77.94h-.5v-77.94c0-12.2,9.93-22.13,22.13-22.13Zm200.77,0h-71.71c-10.74,0-19.48,8.74-19.48,19.48v53.06c0,10.74,8.74,19.48,19.48,19.48h71.71c10.74,0,19.48-8.74,19.48-19.48v-53.06c0-10.74-8.74-19.48-19.48-19.48Zm18.98,72.54c0,10.47-8.52,18.98-18.98,18.98h-71.71c-10.47,0-18.98-8.52-18.98-18.98v-53.06c0-10.47,8.52-18.98,18.98-18.98h71.71c10.47,0,18.98,8.52,18.98,18.98v53.06Zm67.31,16.92h76.06v.5h-76.06c-13.11,0-23.78-10.67-23.78-23.78v-76.42h.5v76.42c0,12.83,10.44,23.28,23.28,23.28Zm347.87-84.64v95.15h-.5v-95.15c0-14.04-11.42-25.46-25.46-25.46h-83.23c-14.04,0-25.46,11.42-25.46,25.46v95.15h-.5v-95.15c0-14.32,11.65-25.96,25.96-25.96h83.23c14.32,0,25.96,11.65,25.96,25.96Zm45.99-25.96h74.3v.5h-36.9v107h36.9v.5h-74.3v-.5h36.9v-107h-36.9v-.5Zm-114,47.52c-3.08,0-5.59,2.51-5.59,5.59s2.51,5.59,5.59,5.59,5.59-2.51,5.59-5.59-2.51-5.59-5.59-5.59Zm0,10.68c-2.81,0-5.09-2.28-5.09-5.09s2.28-5.09,5.09-5.09,5.09,2.28,5.09,5.09-2.28,5.09-5.09,5.09Z"/>
</svg>