<svg xmlns="http://www.w3.org/2000/svg" viewBox="0.09951220452785492 12.773124694824219 259.1304931640625 45.05158233642578" data-asc="1.0498046875" width="259.1304931640625" height="45.05158233642578"><defs/><g><g><g transform="translate(0, 0)"><path d="M5.76 15.48Q5.81 15.72 5.62 15.84Q5.42 15.97 5.15 16.02Q4.88 16.06 4.59 16.02Q4.30 15.97 4.15 15.87Q3.96 15.53 3.93 15.36Q3.91 15.19 4.44 15.09Q4.83 14.99 5.25 15.04Q5.66 15.09 5.76 15.48M3.32 15.28Q3.42 15.38 3.47 15.53Q3.52 15.67 3.42 15.82Q3.03 16.06 2.61 16.09Q2.20 16.11 1.95 16.36Q1.71 16.55 1.59 16.89Q1.46 17.24 1.37 17.63Q1.37 17.72 1.29 17.87Q1.22 18.02 1.22 18.16Q1.12 18.60 1.17 19.07Q1.22 19.53 0.93 19.87Q0.63 19.78 0.63 19.53Q0.63 19.29 0.54 19.04Q0.49 18.85 0.39 18.70Q0.29 18.55 0.24 18.36Q0 17.58 0.17 16.89Q0.34 16.21 0.83 15.67Q1.37 15.48 1.93 15.36Q2.49 15.23 3.32 15.28M38.67 20.80Q38.57 21.09 38.43 21.31Q38.28 21.53 38.09 21.75Q37.89 21.97 37.74 22.24Q37.60 22.51 37.60 22.85Q37.21 23.24 36.67 23.24Q36.13 23.24 35.55 23.29Q35.30 23.29 35.08 23.36Q34.86 23.44 34.62 23.49Q33.64 23.49 32.62 23.44Q31.59 23.39 30.57 23.44Q30.18 23.58 29.66 23.56Q29.15 23.54 28.81 23.63Q28.61 24.27 28.71 24.93Q28.81 25.59 28.56 26.17Q28.47 26.37 28.32 26.54Q28.17 26.71 28.08 26.90Q27.78 27.44 27.49 28.17Q27.20 28.91 27.34 29.74Q27.44 30.13 27.56 30.52Q27.69 30.91 27.93 31.25Q28.32 31.59 28.37 31.71Q28.42 31.84 28.47 31.93Q28.61 32.18 28.74 32.45Q28.86 32.71 28.91 33.11Q28.96 33.50 28.98 33.94Q29.00 34.38 29.00 34.86Q29.05 35.16 29.05 35.47Q29.05 35.79 29.05 36.04Q29.00 36.62 28.96 36.72Q28.91 36.82 28.86 36.91Q28.81 37.01 28.81 37.18Q28.81 37.35 28.76 37.45Q28.66 37.74 28.56 38.23Q28.47 38.72 28.52 39.16Q28.52 39.40 28.54 39.67Q28.56 39.94 28.66 40.19Q28.71 40.33 28.81 40.45Q28.91 40.58 28.96 40.72Q28.91 41.21 28.96 41.33Q29.00 41.46 29.00 41.55Q28.96 42.29 29.00 42.70Q29.05 43.12 28.96 43.51Q29.25 44.78 29.25 46.17Q29.25 47.56 29.44 48.83Q29.54 49.56 29.42 49.88Q29.30 50.20 29.54 50.49Q29.49 50.78 29.47 51.03Q29.44 51.27 29.20 51.51Q28.96 51.61 28.81 51.68Q28.66 51.76 28.32 51.71Q28.08 51.71 27.93 51.56Q27.78 51.42 27.54 51.42Q27.34 51.42 27.15 51.51Q26.95 51.61 26.81 51.71Q26.61 51.81 26.44 52.03Q26.27 52.25 26.03 52.34Q25.63 52.29 25.27 52.37Q24.90 52.44 24.51 52.44Q24.22 52.44 23.85 52.39Q23.49 52.34 23.10 52.39Q22.85 52.44 22.61 52.49Q22.36 52.54 22.12 52.59Q21.68 52.64 21.22 52.61Q20.75 52.59 20.36 52.64Q19.92 52.64 19.48 52.69Q19.04 52.73 18.60 52.83Q18.02 52.93 17.41 52.88Q16.80 52.83 16.21 52.83Q15.92 52.83 15.75 52.83Q15.58 52.83 15.33 52.73Q14.60 52.39 14.48 52.15Q14.36 51.90 14.23 51.68Q14.11 51.46 13.89 51.29Q13.67 51.12 13.28 51.12Q12.99 50.73 12.79 50.59Q12.55 50.15 12.55 49.61Q12.55 49.07 12.50 48.54Q12.50 47.85 12.43 47.19Q12.35 46.53 12.30 45.85Q12.26 45.51 12.30 45.17Q12.35 44.82 12.35 44.48Q12.30 44.04 12.30 43.58Q12.30 43.12 12.30 42.68Q12.35 42.43 12.38 42.16Q12.40 41.89 12.40 41.65Q12.40 40.33 12.30 39.06Q12.21 37.79 12.16 36.52Q12.16 35.79 12.23 34.94Q12.30 34.08 12.55 33.54Q12.65 33.30 12.74 33.11Q12.84 32.91 12.94 32.67Q13.09 32.28 13.18 31.71Q13.28 31.15 13.04 30.76Q12.94 30.47 12.79 30.32Q12.65 30.18 12.55 30.03Q12.26 29.49 12.16 28.78Q12.06 28.08 12.11 27.39Q12.21 26.37 12.16 25.83Q12.16 25.34 12.18 24.80Q12.21 24.27 11.91 23.88Q11.52 23.78 11.11 23.88Q10.69 23.97 10.25 23.97Q10.16 23.97 10.01 23.93Q9.86 23.88 9.72 23.88Q9.57 23.88 9.42 23.93Q9.28 23.97 9.13 23.97Q8.89 24.02 8.74 23.97Q8.59 23.93 8.40 23.97Q8.25 23.97 8.08 24.02Q7.91 24.07 7.71 24.07Q7.42 24.12 7.10 24.10Q6.79 24.07 6.45 24.12Q6.20 24.12 5.93 24.19Q5.66 24.27 5.42 24.27Q4.74 24.12 4.52 24.15Q4.30 24.17 4.05 24.12Q3.71 24.02 3.47 23.97Q3.22 23.93 2.93 23.88Q2.49 23.49 2.54 22.68Q2.59 21.88 2.54 21.29Q2.54 21.09 2.51 20.95Q2.49 20.80 2.44 20.61Q2.39 20.02 2.37 19.53Q2.34 19.04 2.49 18.60Q2.69 18.02 2.91 17.65Q3.13 17.29 3.56 17.04Q3.81 17.04 4.00 16.97Q4.20 16.89 4.44 16.89Q5.32 16.99 5.66 16.89Q6.01 16.80 6.35 16.99Q7.32 16.75 8.30 16.89Q8.59 16.89 8.89 16.97Q9.18 17.04 9.52 16.99Q10.25 16.94 11.11 16.94Q11.96 16.94 12.74 16.85Q13.09 16.80 13.40 16.85Q13.72 16.89 14.01 16.89Q14.45 16.85 14.94 16.89Q15.43 16.94 15.82 17.19Q16.06 17.09 16.26 17.19Q16.46 17.29 16.70 17.33Q17.29 17.33 17.41 17.38Q17.53 17.43 17.63 17.43Q18.51 17.33 18.95 17.29Q19.38 17.24 19.78 16.99Q20.31 16.94 20.90 16.94Q21.48 16.94 21.92 16.70Q22.46 16.60 23.05 16.63Q23.63 16.65 24.22 16.70Q24.61 16.75 24.95 16.65Q25.29 16.55 25.68 16.55Q25.93 16.55 26.07 16.60Q26.22 16.65 26.42 16.65Q27.00 16.50 27.27 16.58Q27.54 16.65 27.83 16.55Q27.93 16.65 28.03 16.75Q28.13 16.85 28.22 16.94Q28.47 17.04 28.66 17.07Q28.86 17.09 29.10 17.14Q29.30 17.14 29.49 17.24Q29.69 17.33 29.98 17.29Q30.47 16.99 30.57 17.02Q30.66 17.04 30.76 16.99Q30.91 16.89 31.01 16.72Q31.10 16.55 31.30 16.46Q31.40 16.41 31.69 16.38Q31.98 16.36 32.13 16.36Q32.37 16.36 32.59 16.38Q32.81 16.41 33.06 16.41Q33.25 16.41 33.42 16.33Q33.59 16.26 33.79 16.21Q34.03 16.21 34.20 16.26Q34.38 16.31 34.57 16.31Q35.16 16.26 35.79 16.16Q36.43 16.06 36.91 16.46Q37.11 16.36 37.21 16.46Q37.30 16.55 37.45 16.65Q37.89 16.85 37.99 17.11Q38.09 17.38 38.23 17.63Q38.57 18.51 38.62 19.43Q38.72 19.73 38.72 20.14Q38.72 20.56 38.67 20.80M7.81 22.02Q7.86 21.88 7.89 21.73Q7.91 21.58 7.91 21.34Q7.67 21.19 7.45 21.22Q7.23 21.24 6.98 21.31Q6.74 21.39 6.49 21.44Q6.25 21.48 6.05 21.39Q5.91 21.24 5.81 20.95Q5.71 20.65 5.59 20.39Q5.47 20.12 5.30 19.97Q5.13 19.82 4.83 19.97Q4.59 20.07 4.54 20.31Q4.49 20.56 4.49 20.85Q4.49 21.14 4.49 21.46Q4.49 21.78 4.44 21.97Q4.79 22.07 5.03 22.29Q5.27 22.51 5.62 22.61Q6.15 22.71 6.69 22.39Q7.23 22.07 7.81 22.02M11.43 21.63Q11.52 21.44 11.50 21.17Q11.47 20.90 11.28 20.85Q10.94 20.95 10.50 21.12Q10.06 21.29 10.11 21.78Q10.40 21.92 10.79 21.85Q11.18 21.78 11.43 21.63M19.78 50.54Q19.82 50.34 19.87 50.20Q19.92 50.05 19.97 49.85Q19.82 49.61 19.58 49.51Q19.34 49.41 19.04 49.22Q18.65 49.12 18.36 49.32Q18.07 49.51 17.77 49.51Q17.33 49.46 17.07 49.15Q16.80 48.83 16.26 48.93Q15.97 49.02 15.84 49.32Q15.72 49.61 15.92 49.95Q16.06 50.15 16.33 50.29Q16.60 50.44 16.85 50.63Q16.99 50.73 17.07 50.85Q17.14 50.98 17.29 51.03Q17.48 51.12 17.70 51.07Q17.92 51.03 18.02 51.03Q18.41 50.83 18.90 50.81Q19.38 50.78 19.78 50.54M26.37 38.28Q26.07 38.04 25.90 38.40Q25.73 38.77 25.83 39.16Q26.22 39.50 26.34 39.36Q26.46 39.21 26.51 39.01Q26.56 38.82 26.51 38.60Q26.46 38.38 26.37 38.28M26.76 46.39Q26.90 45.12 26.64 43.92Q26.37 42.72 26.27 41.60Q26.12 41.46 25.90 41.31Q25.68 41.16 25.49 41.16Q25.10 41.16 25.02 41.65Q24.95 42.14 25.05 42.58Q25.10 43.02 25.12 43.46Q25.15 43.90 25.24 44.34Q25.44 45.17 25.39 45.63Q25.34 46.09 25.44 46.48Q25.49 46.73 25.71 47.12Q25.93 47.51 26.12 47.51Q26.42 47.51 26.56 47.07Q26.71 46.63 26.76 46.39M35.69 20.12Q36.13 20.12 36.33 19.75Q36.52 19.38 36.47 18.99Q36.38 18.55 36.40 18.51Q36.43 18.46 36.38 18.36Q36.33 18.12 36.06 17.97Q35.79 17.82 35.45 17.87Q35.21 17.92 34.89 17.97Q34.57 18.02 34.47 18.07Q34.08 18.31 34.20 18.70Q34.33 19.09 34.57 19.34Q35.11 19.29 35.21 19.68Q35.30 20.07 35.69 20.12M39.99 20.36Q40.04 20.75 39.94 21.36Q39.84 21.97 39.94 22.61Q40.04 22.95 40.06 23.41Q40.09 23.88 39.84 24.12Q39.70 24.22 39.53 24.37Q39.36 24.51 39.16 24.66Q39.01 24.76 38.82 24.93Q38.62 25.10 38.43 25.10Q38.18 25.10 37.89 24.95Q37.60 24.80 37.35 24.85Q37.21 24.90 37.06 25Q36.91 25.10 36.82 25.05Q36.57 25.05 36.47 24.73Q36.38 24.41 36.47 24.17Q36.67 24.12 36.79 23.97Q36.91 23.83 37.11 23.78Q37.35 23.73 37.52 23.80Q37.70 23.88 37.94 23.83Q38.13 23.78 38.31 23.71Q38.48 23.63 38.57 23.54Q38.92 23.29 39.18 22.85Q39.45 22.41 39.45 21.92Q39.45 21.53 39.36 21.12Q39.26 20.70 39.26 20.17Q39.36 20.07 39.40 19.92Q39.45 19.78 39.55 19.68Q39.79 19.63 39.89 19.87Q39.99 20.12 39.99 20.36M31.01 33.59Q30.91 33.84 30.57 33.91Q30.22 33.98 30.08 33.74Q30.03 33.06 30.00 32.42Q29.98 31.79 29.83 31.20Q29.39 31.01 29.20 30.57Q29.00 30.13 28.96 29.61Q28.91 29.10 29.03 28.56Q29.15 28.03 29.39 27.69Q29.44 27.29 29.54 27.03Q29.64 26.76 29.69 26.27Q29.69 25.98 29.69 25.71Q29.69 25.44 29.88 25.20Q30.37 25.24 30.49 25.63Q30.62 26.03 30.57 26.61Q30.52 26.76 30.47 26.88Q30.42 27.00 30.42 27.15Q30.37 27.54 30.44 27.91Q30.52 28.27 30.47 28.56Q30.81 29.69 30.74 30.66Q30.66 31.64 30.81 32.62Q30.86 32.86 30.93 33.11Q31.01 33.35 31.01 33.59M30.76 36.23Q30.47 36.23 30.35 35.94Q30.22 35.64 30.27 35.30Q30.32 34.96 30.52 34.77Q30.71 34.57 31.05 34.86Q31.30 35.11 31.23 35.64Q31.15 36.18 30.76 36.23M13.92 53.71Q14.21 53.91 14.58 53.86Q14.94 53.81 15.19 54.20Q14.31 54.69 13.75 54.59Q13.18 54.49 12.74 54.39Q12.50 54.30 12.18 54.00Q11.87 53.71 11.77 53.47Q11.47 52.93 11.40 52.32Q11.33 51.71 10.94 51.27Q11.04 51.07 10.96 50.88Q10.89 50.68 11.28 50.73Q11.47 51.12 11.82 51.32Q12.16 51.51 12.11 52.15Q12.35 52.25 12.57 52.32Q12.79 52.39 12.94 52.49Q13.18 52.69 13.26 52.93Q13.33 53.17 13.53 53.37L13.92 53.71M17.68 54.10Q18.12 54.00 18.43 53.91Q18.75 53.81 19.14 53.91Q19.43 54.20 19.21 54.42Q18.99 54.64 18.58 54.74Q18.16 54.83 17.68 54.81Q17.19 54.79 16.99 54.64Q16.75 54.74 16.50 54.69Q16.26 54.64 16.02 54.54Q15.97 54.20 16.24 54.20Q16.50 54.20 16.75 54.15Q16.99 54.15 17.24 54.15Q17.48 54.15 17.68 54.10ZM46.39 18.80Q46.14 18.75 45.87 18.77Q45.61 18.80 45.39 18.77Q45.17 18.75 45.02 18.60Q44.87 18.46 44.92 18.07Q45.26 17.77 45.56 17.77Q45.85 17.77 46.09 17.72Q46.63 17.87 46.78 18.36Q46.63 18.70 46.39 18.80M43.46 18.75Q42.97 18.60 42.53 18.73Q42.09 18.85 41.65 19.04Q41.55 19.14 41.48 19.34Q41.41 19.53 41.31 19.73Q41.26 19.97 41.19 20.19Q41.11 20.41 41.11 20.61Q41.06 20.85 41.09 21.09Q41.11 21.34 40.87 21.44Q39.89 21.00 40.14 20.02Q40.14 19.87 40.21 19.70Q40.28 19.53 40.28 19.34Q40.33 18.95 40.36 18.65Q40.38 18.36 40.63 18.16Q40.87 17.92 41.19 17.94Q41.50 17.97 41.85 17.97Q42.63 17.77 42.90 17.97Q43.16 18.16 43.51 18.16Q43.55 18.65 43.46 18.75M61.43 46.04Q61.38 46.34 61.47 46.58Q61.57 46.83 61.57 47.07Q61.57 47.51 61.43 47.88Q61.28 48.24 61.18 48.54Q61.04 48.63 60.89 48.68Q60.74 48.73 60.69 48.93Q60.25 48.97 59.86 49.12Q59.28 49.02 58.79 49.05Q58.30 49.07 57.76 49.02Q57.57 49.02 57.23 49.00Q56.88 48.97 56.64 48.88Q55.86 48.54 55.13 48.14Q54.39 47.75 53.42 47.85Q53.22 47.85 53.08 47.92Q52.93 48.00 52.73 47.90Q52.34 48.10 51.95 48.10Q51.56 48.10 51.27 48.29Q50.63 48.39 50.05 48.51Q49.46 48.63 48.78 48.58Q48.49 48.54 48.19 48.56Q47.90 48.58 47.66 48.58Q47.31 48.58 46.97 48.54Q46.63 48.49 46.24 48.44Q45.70 48.44 45.46 48.39Q44.92 48.34 44.36 48.34Q43.80 48.34 43.29 48.22Q42.77 48.10 42.43 47.83Q42.09 47.56 42.09 46.88Q42.09 46.73 42.16 46.58Q42.24 46.44 42.24 46.29Q42.14 45.75 41.99 45.19Q41.85 44.63 41.99 44.24Q42.33 43.60 42.38 43.38Q42.43 43.16 42.68 42.97Q43.21 42.77 43.77 42.68Q44.34 42.58 45.02 42.58Q45.12 42.38 45.09 42.16Q45.07 41.94 45.12 41.70Q45.26 41.60 45.34 41.43Q45.41 41.26 45.65 41.21Q45.85 40.82 45.97 40.50Q46.09 40.19 46.00 39.79Q45.90 39.50 45.65 39.26Q45.41 39.01 45.41 38.62Q45.41 38.33 45.51 37.96Q45.61 37.60 45.65 37.21Q45.65 36.62 45.80 36.45Q45.95 36.28 46.04 36.13Q46.14 35.60 46.24 35.45Q46.34 35.30 46.44 35.06Q46.53 34.62 46.61 34.25Q46.68 33.89 46.68 33.35Q46.63 33.15 46.66 32.93Q46.68 32.71 46.58 32.52Q46.48 32.23 46.29 32.01Q46.09 31.79 46.00 31.54Q45.90 31.15 45.83 30.76Q45.75 30.37 45.80 29.98Q45.80 29.54 45.83 29.03Q45.85 28.52 45.85 27.98Q45.95 27.25 45.85 26.71Q45.65 26.03 45.65 25.83Q45.65 25.63 45.46 25.54Q44.97 25.63 44.43 25.71Q43.90 25.78 43.41 25.63Q43.07 25.39 42.68 25.15Q42.29 24.90 42.14 24.27Q42.04 23.88 42.16 23.41Q42.29 22.95 42.33 22.46Q42.38 21.88 42.33 21.39Q42.29 20.90 42.38 20.46Q42.48 20.12 42.72 19.97Q42.97 19.82 43.12 19.68Q43.90 19.58 44.70 19.56Q45.51 19.53 46.29 19.78Q46.44 20.21 46.92 20.41Q47.41 20.61 47.80 20.46Q47.95 20.41 48.02 20.29Q48.10 20.17 48.19 20.07Q48.68 19.87 49.15 19.97Q49.61 20.07 50.15 19.97Q50.83 20.07 51.51 20.09Q52.20 20.12 52.88 20.17Q53.13 20.17 53.32 20.19Q53.52 20.21 53.76 20.41Q53.91 21.34 55.03 21.34Q55.22 21.34 55.35 21.26Q55.47 21.19 55.66 21.09L56.25 21.09Q56.93 21.00 57.20 21.12Q57.47 21.24 57.71 21.24Q58.15 21.24 58.54 21.04Q58.89 20.95 59.11 20.78Q59.33 20.61 59.57 20.51Q59.91 20.56 60.33 20.53Q60.74 20.51 61.04 20.56Q61.87 20.65 62.26 20.90Q62.84 21.24 62.65 21.78Q62.74 22.27 62.79 22.90Q62.84 23.54 62.77 24.12Q62.70 24.71 62.50 25.20Q62.30 25.68 61.91 25.88Q61.67 25.78 61.45 25.90Q61.23 26.03 61.04 26.07Q60.60 26.17 60.13 26.12Q59.67 26.07 59.18 26.12Q59.13 26.46 59.06 26.71Q58.98 26.95 59.18 27.15Q59.03 27.93 59.03 28.54Q59.03 29.15 58.96 29.71Q58.89 30.27 58.72 30.76Q58.54 31.25 58.15 31.54Q57.96 32.08 57.96 32.59Q57.96 33.11 58.06 33.59Q58.15 34.08 58.25 34.59Q58.35 35.11 58.40 35.64Q58.45 35.89 58.37 36.13Q58.30 36.38 58.25 36.62Q58.15 38.04 58.30 39.60Q58.45 41.16 58.11 42.87Q58.64 43.02 59.11 42.99Q59.57 42.97 60.11 43.16Q60.25 43.26 60.38 43.33Q60.50 43.41 60.64 43.46Q60.99 43.60 61.21 43.68Q61.43 43.75 61.52 44.14Q61.57 44.24 61.57 44.43Q61.57 44.63 61.57 44.82Q61.62 45.21 61.55 45.48Q61.47 45.75 61.43 46.04M45.12 46.63Q45.36 46.58 45.58 46.41Q45.80 46.24 45.80 46.04Q45.75 45.90 45.46 45.70Q45.17 45.51 44.92 45.41Q44.68 45.31 44.58 45.41Q44.48 45.51 44.24 45.56Q44.14 45.80 44.07 45.97Q43.99 46.14 43.99 46.48Q44.53 46.58 44.73 46.63Q44.92 46.68 45.12 46.63M47.36 27.05Q47.90 27.10 48.10 26.98Q48.29 26.86 48.49 26.71Q48.54 26.17 48.78 25.63Q49.02 25.10 48.97 24.56Q48.93 24.17 48.73 23.95Q48.54 23.73 48.39 23.49Q47.75 23.34 47.22 23.14Q46.68 22.95 46.24 23.49Q46.34 23.68 46.51 23.68Q46.68 23.68 46.88 23.78Q47.17 23.93 47.36 24.46Q47.51 24.80 47.49 25.10Q47.46 25.39 47.41 25.68Q47.36 26.03 47.41 26.39Q47.46 26.76 47.36 27.05M48.83 29.98Q48.88 29.64 48.93 29.30Q48.97 28.96 48.73 28.76Q48.58 28.61 48.27 28.59Q47.95 28.56 47.80 28.66Q47.66 28.91 47.71 29.15Q47.75 29.39 47.75 29.69Q48.19 30.03 48.83 29.98M64.50 24.12Q64.16 24.41 64.04 24.10Q63.92 23.78 63.96 23.44Q64.11 23.24 64.33 23.27Q64.55 23.29 64.60 23.54Q64.65 23.68 64.55 23.78Q64.45 23.88 64.50 24.12M64.45 25.20Q64.65 25.44 64.65 25.76Q64.65 26.07 64.55 26.42Q64.45 26.76 64.36 27.08Q64.26 27.39 64.21 27.64Q64.11 27.69 63.99 27.76Q63.87 27.83 63.67 27.88Q63.48 27.88 63.26 27.81Q63.04 27.73 62.79 27.73Q62.26 27.59 62.23 27.39Q62.21 27.20 62.21 27.00Q63.04 26.86 63.48 26.27Q63.62 26.03 63.65 25.66Q63.67 25.29 63.77 25.05Q63.96 24.90 64.16 24.98Q64.36 25.05 64.45 25.20M59.23 41.26Q59.23 40.58 59.25 39.97Q59.28 39.36 59.38 38.62Q59.42 38.18 59.42 37.79Q59.42 37.40 59.47 37.11Q59.47 36.82 59.67 36.47Q59.86 36.13 60.21 36.38Q60.25 36.47 60.25 36.65Q60.25 36.82 60.30 36.91Q60.21 37.74 60.28 38.77Q60.35 39.79 60.60 40.58Q60.79 40.77 60.99 40.94Q61.18 41.11 61.57 41.16Q61.82 41.36 61.74 41.70Q61.67 42.04 61.43 42.14Q60.89 41.99 60.35 41.89Q59.81 41.80 59.42 41.55L59.23 41.26M42.97 49.17Q43.26 49.07 43.90 49.15Q44.53 49.22 44.73 49.61Q43.65 50.15 42.72 50.24Q41.80 50.34 41.06 50Q40.38 49.71 40.41 49.12Q40.43 48.54 40.48 48.05Q40.53 47.71 40.53 47.29Q40.53 46.88 40.58 46.53Q40.63 46.19 40.77 45.97Q40.92 45.75 41.26 45.75Q41.50 45.95 41.53 46.26Q41.55 46.58 41.60 46.92Q41.60 47.27 41.53 47.56Q41.46 47.85 41.46 48.10Q41.50 48.73 41.89 48.93Q42.29 49.12 42.97 49.17ZM106.40 19.19Q106.49 20.02 106.49 20.78Q106.49 21.53 106.20 22.36Q105.66 22.41 105.66 22.19Q105.66 21.97 105.62 21.78Q105.37 21.09 105.05 20.46Q104.74 19.82 104.35 19.24Q103.86 18.90 103.39 18.60Q102.93 18.31 102.44 17.92Q101.81 17.82 101.17 17.60Q100.54 17.38 99.76 17.33Q99.17 17.33 99.02 17.26Q98.88 17.19 98.68 17.19Q98.44 17.19 98.12 17.21Q97.80 17.24 97.51 17.21Q97.22 17.19 97.05 17.07Q96.88 16.94 96.97 16.55Q97.12 16.26 97.44 16.16Q97.75 16.06 98.12 16.06Q98.49 16.06 98.88 16.09Q99.27 16.11 99.51 16.11Q100.44 16.21 101.22 16.63Q102.00 17.04 102.83 17.33Q103.22 17.43 103.34 17.50Q103.47 17.58 103.56 17.63Q103.96 17.72 104.35 17.72Q104.74 17.72 104.98 18.07Q105.47 18.21 105.76 18.55Q106.05 18.90 106.40 19.19M75.15 18.02Q74.66 18.07 74.17 17.94Q73.68 17.82 73.68 17.43Q73.63 17.04 73.97 17.09Q74.32 17.14 74.56 17.04Q74.90 17.29 75.46 17.19Q76.03 17.09 76.27 17.33Q76.32 17.58 75.90 17.77Q75.49 17.97 75.15 18.02M103.96 21.68Q104.30 22.27 104.47 22.78Q104.64 23.29 104.74 24.12Q104.98 25.54 104.91 27.20Q104.83 28.86 104.69 30.52Q104.64 31.49 104.25 32.37Q104.15 32.62 104.10 32.89Q104.05 33.15 103.96 33.35Q103.86 33.54 103.66 33.62Q103.47 33.69 103.17 33.59Q102.93 33.84 102.69 34.08Q102.44 34.33 102.34 34.72Q102.29 35.30 102.15 35.50Q102.00 35.69 101.90 35.79Q101.51 35.99 101.51 36.04Q101.51 36.08 101.42 36.13Q101.07 36.23 100.85 36.38Q100.63 36.52 100.44 36.62Q99.95 36.52 99.46 36.72Q98.97 36.91 98.58 36.82Q98.44 36.82 98.34 36.74Q98.24 36.67 98.05 36.72Q97.80 37.35 98.00 37.67Q98.19 37.99 98.44 38.33Q98.83 38.96 99.12 39.55Q99.41 40.14 99.90 40.63Q99.85 40.77 100 40.89Q100.15 41.02 100.20 41.26Q100.15 41.85 100.20 41.89Q100.24 41.94 100.24 42.04Q100.39 42.38 100.46 42.75Q100.54 43.12 100.78 43.31Q101.32 43.51 101.44 43.63Q101.56 43.75 101.76 43.65Q102.20 44.24 102.76 44.80Q103.32 45.36 103.32 46.34Q102.93 46.44 102.39 46.44Q101.86 46.44 101.32 46.44Q100.93 46.44 100.51 46.51Q100.10 46.58 99.71 46.48Q99.17 46.58 98.66 46.63Q98.14 46.68 97.46 46.58Q96.92 46.73 96.31 46.58Q95.70 46.44 95.41 46.04Q95.31 45.56 94.90 45.12Q94.48 44.68 94.58 44.09Q94.38 43.75 94.41 43.36Q94.43 42.97 94.19 42.72Q93.90 42.48 93.58 42.41Q93.26 42.33 93.02 42.09Q92.82 41.94 92.72 41.75Q92.63 41.55 92.53 41.36Q92.29 40.97 91.99 40.67Q91.70 40.38 91.60 39.99Q91.16 39.55 90.82 39.01Q90.48 38.48 90.19 37.94Q89.79 37.65 89.65 37.55Q89.40 37.65 89.23 37.62Q89.06 37.60 88.82 37.55Q88.13 37.45 87.28 37.55Q86.43 37.65 85.60 37.65Q85.06 37.65 84.42 37.70Q83.79 37.74 83.20 37.89Q83.25 39.01 83.20 40.48Q83.15 41.94 83.30 42.97Q83.20 43.46 83.23 44.07Q83.25 44.68 83.23 45.21Q83.20 45.75 83.01 46.22Q82.81 46.68 82.32 46.88Q81.88 46.88 81.40 46.97Q80.91 47.07 80.42 47.07Q80.18 47.07 79.91 47.02Q79.64 46.97 79.35 46.97Q79.00 47.02 78.56 47.05Q78.13 47.07 77.73 47.02Q77.49 47.02 77.27 46.95Q77.05 46.88 76.81 46.88Q76.12 46.88 75.54 46.88Q74.95 46.88 74.41 46.63Q74.17 46.53 73.97 46.41Q73.78 46.29 73.44 46.39Q73.05 46.48 72.78 46.70Q72.51 46.92 72.27 46.92Q72.02 46.97 71.51 46.75Q71.00 46.53 70.80 46.39Q70.61 46.24 70.39 45.85Q70.17 45.46 70.12 45.17Q69.92 44.43 70.41 44.04Q70.41 43.60 70.58 43.31Q70.75 43.02 70.70 42.58Q70.65 42.04 70.31 41.75Q69.97 41.46 69.73 41.06Q69.63 39.94 69.70 38.67Q69.78 37.40 69.73 36.23Q69.73 35.99 69.65 35.74Q69.58 35.50 69.63 35.25Q69.68 35.11 69.75 34.99Q69.82 34.86 69.92 34.67Q70.02 34.42 70.04 34.13Q70.07 33.84 70.31 33.69Q70.26 33.40 70.34 33.13Q70.41 32.86 70.36 32.57Q70.12 32.13 70.14 31.96Q70.17 31.79 70.12 31.69Q70.02 31.40 69.85 31.18Q69.68 30.96 69.63 30.71Q69.53 30.27 69.63 29.88L69.63 26.32L69.63 24.71Q69.68 24.22 69.73 23.83Q69.78 23.44 69.78 23.05Q69.73 22.90 69.68 22.75Q69.63 22.61 69.63 22.46Q69.63 22.27 69.65 22.09Q69.68 21.92 69.68 21.78Q69.68 21.58 69.65 21.41Q69.63 21.24 69.63 21.04Q69.73 19.29 71.19 18.90Q71.73 18.80 72.02 18.82Q72.31 18.85 72.66 18.80Q72.80 18.75 72.95 18.70Q73.10 18.65 73.24 18.65Q73.83 18.65 74.17 18.99Q74.51 19.34 75.15 19.34Q75.44 19.38 75.68 19.34Q75.93 19.29 76.17 19.24Q76.51 19.14 76.83 18.99Q77.15 18.85 77.54 18.70Q78.56 18.55 79.69 18.55Q79.93 18.55 80.20 18.60Q80.47 18.65 80.71 18.65Q81.10 18.65 81.52 18.58Q81.93 18.51 82.32 18.46Q82.67 18.46 82.96 18.51Q83.25 18.55 83.59 18.55Q84.42 18.65 85.33 18.63Q86.23 18.60 87.06 18.60Q87.70 18.65 87.92 18.60Q88.13 18.55 88.38 18.55Q88.67 18.51 88.94 18.55Q89.21 18.60 89.45 18.60Q89.94 18.60 90.38 18.51Q90.82 18.41 91.26 18.41Q91.85 18.46 91.94 18.41Q92.04 18.36 92.14 18.36Q92.77 18.26 93.38 18.36Q93.99 18.46 94.63 18.41Q95.26 18.95 95.80 18.95Q96.48 18.95 97.12 18.65Q97.75 18.36 98.44 18.31Q98.58 18.31 98.71 18.36Q98.83 18.41 98.97 18.41Q99.51 18.46 100.05 18.51Q100.59 18.55 100.98 18.70Q101.27 18.95 101.59 19.19Q101.90 19.43 102.29 19.58Q102.78 20.02 103.17 20.58Q103.56 21.14 103.96 21.68M73.78 44.29Q74.02 44.14 74.07 43.68Q74.12 43.21 73.93 42.92Q73.78 42.72 73.49 42.70Q73.19 42.68 72.95 42.77Q72.71 42.97 72.39 43.43Q72.07 43.90 72.27 44.34Q72.61 44.38 73.02 44.43Q73.44 44.48 73.78 44.29M73.73 22.07Q73.83 21.73 73.66 21.51Q73.49 21.29 73.34 21.04Q72.85 20.95 72.61 20.68Q72.36 20.41 71.97 20.51Q71.48 20.61 71.51 21.26Q71.53 21.92 71.53 22.31Q71.48 22.90 71.56 23.07Q71.63 23.24 71.63 23.44Q71.68 23.73 71.63 24.29Q71.58 24.85 71.78 25.05Q71.97 25.24 72.24 25.10Q72.51 24.95 72.61 24.80Q72.71 24.56 72.58 24.37Q72.46 24.17 72.46 23.93Q72.41 23.68 72.46 23.46Q72.51 23.24 72.56 23.00Q72.61 22.75 72.66 22.56Q72.71 22.36 72.80 22.17Q73.00 22.07 73.24 22.12Q73.49 22.17 73.73 22.07M85.60 21.78Q85.35 21.63 85.03 21.75Q84.72 21.88 84.62 22.12Q84.72 22.46 85.06 22.71Q85.21 22.66 85.42 22.61Q85.64 22.56 85.89 22.53Q86.13 22.51 86.30 22.41Q86.47 22.31 86.47 22.12Q86.47 21.97 86.30 21.83Q86.13 21.68 85.89 21.68L85.60 21.78M83.01 22.41Q83.11 22.22 83.06 22.02Q83.01 21.83 82.91 21.73Q82.57 21.53 82.28 21.61Q81.98 21.68 81.74 21.73Q81.45 21.78 81.23 21.75Q81.01 21.73 80.76 21.83Q80.37 22.07 80.30 22.53Q80.22 23.00 80.13 23.54Q80.08 23.83 80.03 24.12Q79.98 24.41 80.03 24.66Q80.03 24.85 80.22 25.24Q80.42 25.93 80.81 26.10Q81.20 26.27 81.35 25.88Q81.40 25.49 81.32 25Q81.25 24.51 81.35 23.97Q81.40 23.68 81.54 23.27Q81.69 22.85 81.93 22.75L83.01 22.41M91.99 28.71Q91.99 28.47 91.94 28.30Q91.89 28.13 91.89 27.93Q91.89 27.44 91.97 26.95Q92.04 26.46 91.99 25.98Q91.99 25.49 91.75 25.27Q91.50 25.05 91.26 24.80Q91.11 24.71 90.99 24.58Q90.87 24.46 90.77 24.41Q90.48 24.27 90.21 24.27Q89.94 24.27 89.55 24.22Q89.26 24.12 89.06 23.93Q88.87 23.73 88.62 23.63Q87.74 23.97 87.28 23.97Q86.82 23.97 86.38 23.97Q86.08 23.97 85.79 24.05Q85.50 24.12 85.21 24.12Q84.67 24.17 84.16 24.10Q83.64 24.02 83.11 24.22Q83.01 24.66 83.11 25.05Q83.20 25.44 83.20 25.88Q83.20 27.10 83.18 27.83Q83.15 28.56 83.20 29.25Q83.25 29.49 83.33 29.69Q83.40 29.88 83.45 30.13Q83.45 30.62 83.37 31.15Q83.30 31.69 83.45 32.13Q83.98 32.08 84.38 32.15Q84.77 32.23 85.16 32.32Q85.55 32.23 86.13 32.20Q86.72 32.18 87.21 32.18Q87.79 32.42 88.01 32.50Q88.23 32.57 88.43 32.52Q88.67 32.42 88.92 32.20Q89.16 31.98 89.40 31.88Q89.84 31.79 90.28 31.74Q90.72 31.69 91.02 31.49Q91.11 31.45 91.24 31.30Q91.36 31.15 91.46 31.05L91.75 30.52Q91.80 30.42 91.85 30.18Q91.89 29.93 91.89 29.79Q91.89 29.49 91.89 29.22Q91.89 28.96 91.99 28.71M100.59 23.73Q100.68 23.93 100.90 23.97Q101.12 24.02 101.37 24.07Q101.61 23.93 101.81 23.58Q102.00 23.24 102.00 22.85Q101.95 22.56 101.76 22.27Q101.56 21.97 101.56 21.68Q101.27 21.44 100.71 21.12Q100.15 20.80 99.56 20.80Q99.41 20.80 99.24 21.02Q99.07 21.24 99.12 21.48Q99.22 21.73 99.58 21.85Q99.95 21.97 100.20 22.12Q100.63 22.46 100.66 22.83Q100.68 23.19 100.59 23.73M102.64 26.61Q102.64 26.27 102.69 25.98Q102.73 25.68 102.49 25.54Q102.29 25.68 102.12 25.59Q101.95 25.49 101.81 25.54Q101.56 25.59 101.39 25.83Q101.22 26.07 101.27 26.27Q101.32 26.66 101.81 26.73Q102.29 26.81 102.64 26.61M86.38 25Q86.77 25.05 87.13 24.93Q87.50 24.80 87.74 25.05Q87.89 25.59 87.48 25.68Q87.06 25.78 86.67 25.88Q86.28 26.03 86.13 26.29Q85.99 26.56 85.74 26.76Q85.64 26.95 85.55 27.08Q85.45 27.20 85.40 27.34Q85.16 27.59 84.89 27.61Q84.62 27.64 84.52 27.10Q84.47 26.86 84.47 26.54Q84.47 26.22 84.47 25.93Q84.42 25.29 84.72 25.10Q85.01 24.90 85.60 24.90L86.18 24.90L86.38 25M89.50 25.15Q89.60 25.24 89.77 25.49Q89.94 25.73 89.94 25.83Q89.94 25.93 89.77 26.12Q89.60 26.32 89.50 26.37Q89.01 26.61 88.60 26.22Q88.18 25.83 88.38 25.24Q88.62 25.15 88.94 25.07Q89.26 25 89.50 25.15M103.37 35.55Q103.47 35.16 103.88 34.99Q104.30 34.81 104.54 35.35Q104.54 36.13 104.05 36.43Q103.32 36.08 103.37 35.55M103.22 36.57Q103.56 36.67 103.61 37.21Q103.66 37.74 103.52 37.99Q103.42 38.09 103.17 38.33Q102.93 38.57 102.78 38.67Q102.54 38.77 102.25 38.72Q101.95 38.67 101.71 38.67Q101.61 39.40 102.00 39.87Q102.39 40.33 102.49 40.92Q102.54 41.11 102.49 41.28Q102.44 41.46 102.44 41.65Q101.71 41.55 101.39 41.09Q101.07 40.63 100.83 40.23Q100.59 39.75 100.59 39.28Q100.59 38.82 100.83 38.28Q101.37 37.94 101.59 37.89Q101.81 37.84 102.05 37.60Q102.20 37.50 102.32 37.28Q102.44 37.06 102.56 36.89Q102.69 36.72 102.83 36.60Q102.98 36.47 103.22 36.57M84.86 39.06Q85.55 38.67 86.35 38.75Q87.16 38.82 87.94 38.87Q87.01 39.36 86.40 39.62Q85.79 39.89 85.50 40.53Q85.45 41.31 85.18 41.85Q84.91 42.38 84.77 43.02Q84.47 42.19 84.47 41.04Q84.47 39.89 84.86 39.06M68.46 42.04Q68.99 41.75 69.19 42.09Q69.38 42.43 69.36 42.94Q69.34 43.46 69.07 43.95Q68.80 44.43 68.41 44.43Q68.02 43.99 68.19 43.26Q68.36 42.53 68.46 42.04M84.38 45.41Q84.18 45.21 84.23 44.87Q84.28 44.53 84.45 44.29Q84.62 44.04 84.86 43.95Q85.11 43.85 85.30 44.09Q85.35 44.68 85.16 45.09Q84.96 45.51 84.38 45.41M95.65 47.80Q96.44 47.80 97.09 47.85Q97.75 47.90 98.34 47.85Q98.49 48.05 98.39 48.22Q98.29 48.39 98.07 48.51Q97.85 48.63 97.56 48.73Q97.27 48.83 97.02 48.88Q96.63 48.93 96.12 48.90Q95.61 48.88 95.21 48.83Q94.48 48.78 93.99 48.19Q93.90 47.85 93.77 47.56Q93.65 47.27 93.65 46.78Q93.75 46.68 93.85 46.61Q93.95 46.53 94.14 46.53Q94.53 46.78 94.90 47.14Q95.26 47.51 95.65 47.80M75.15 48.54Q75.34 48.63 75.59 48.61Q75.83 48.58 76.05 48.56Q76.27 48.54 76.46 48.56Q76.66 48.58 76.76 48.78Q76.27 48.97 75.95 49.05Q75.63 49.12 75.24 49.12Q74.95 49.12 74.66 49.07Q74.37 49.02 74.07 49.02Q73.83 49.02 73.63 49.10Q73.44 49.17 73.24 49.22Q72.71 49.32 72.12 49.32Q71.53 49.32 70.95 49.41Q70.56 49.46 70.07 49.44Q69.58 49.41 69.34 49.32Q68.80 49.12 68.70 48.56Q68.60 48.00 68.70 47.46Q68.80 47.36 68.95 47.31Q69.09 47.27 69.19 47.12Q69.58 47.12 69.65 47.51Q69.73 47.90 70.02 48.05Q70.51 48.29 71.12 48.17Q71.73 48.05 72.41 48.00Q72.56 48.00 72.73 48.05Q72.90 48.10 73.10 48.10Q73.44 48.10 73.66 48.07Q73.88 48.05 74.07 48.10Q74.61 48.39 74.80 48.36Q75 48.34 75.15 48.54ZM117.33 19.97Q117.14 20.02 117.02 20.12Q116.89 20.21 116.65 20.12Q116.36 19.82 116.70 19.29Q116.89 19.19 117.07 19.09Q117.24 18.99 117.43 18.95Q117.68 18.80 117.87 18.65Q118.07 18.51 118.36 18.46Q118.85 18.16 119.34 17.85Q119.82 17.53 120.51 17.68Q121.09 17.77 121.19 17.90Q121.29 18.02 121.19 18.26Q121.00 18.36 120.78 18.38Q120.56 18.41 120.31 18.51Q120.12 18.55 119.97 18.63Q119.82 18.70 119.68 18.80Q119.43 18.90 119.14 18.90Q118.85 18.90 118.70 19.14Q117.87 19.38 117.33 19.97M145.51 44.68Q145.02 45.02 144.78 45.41Q143.60 46.24 142.41 47.07Q141.21 47.90 139.84 48.54Q139.31 48.88 138.94 49.00Q138.57 49.12 138.18 49.27Q137.99 49.32 137.89 49.41Q137.79 49.51 137.70 49.56Q137.06 49.71 136.82 49.80Q136.57 49.90 136.33 50Q136.13 50.05 135.74 50.24Q135.16 50.44 134.40 50.37Q133.64 50.29 132.86 50.39Q132.57 50.44 132.18 50.49Q131.79 50.54 131.40 50.63Q131.01 50.54 130.44 50.54Q129.88 50.54 129.35 50.49Q129.00 50.44 128.66 50.34Q128.32 50.24 127.93 50.20Q127.44 50.15 126.95 50.12Q126.46 50.10 125.93 49.95Q125.29 50.05 124.83 49.85Q124.37 49.66 123.83 49.71Q123.54 49.61 123.17 49.54Q122.80 49.46 122.49 49.37Q122.17 49.27 121.95 49.07Q121.73 48.88 121.78 48.49Q121.53 48.14 121.07 47.95Q120.61 47.75 120.17 47.56Q119.82 47.51 119.58 47.66Q119.34 47.80 119.04 47.80Q118.90 47.85 118.68 47.80Q118.46 47.75 118.26 47.71Q117.87 47.61 117.60 47.46Q117.33 47.31 116.94 47.07Q116.80 46.97 116.65 46.97Q116.50 46.97 116.36 46.88Q115.97 46.63 115.63 46.36Q115.28 46.09 114.89 46.00Q114.16 45.02 113.43 44.14Q112.70 43.26 112.26 42.09Q112.01 41.80 111.89 41.48Q111.77 41.16 111.62 40.77Q111.52 40.67 111.40 40.58Q111.28 40.48 111.08 40.38Q110.64 39.84 110.38 39.16Q110.11 38.48 109.72 37.94Q109.52 36.52 109.30 35.03Q109.08 33.54 109.67 32.08Q109.86 31.49 110.16 31.27Q110.45 31.05 110.55 30.57Q110.60 30.42 110.55 30.22Q110.50 30.03 110.55 29.83Q110.64 29.54 110.69 29.17Q110.74 28.81 110.84 28.47Q111.18 27.78 111.45 27.10Q111.72 26.42 112.11 25.88Q112.26 25.34 112.70 24.90Q113.04 24.56 113.43 24.27Q113.67 24.17 113.87 24.17Q114.06 24.17 114.31 24.07Q114.55 23.97 114.79 23.80Q115.04 23.63 115.28 23.54Q115.77 22.85 116.04 22.31Q116.31 21.78 116.70 21.44Q117.09 21.14 117.43 20.97Q117.77 20.80 118.16 20.61Q118.85 20.51 119.14 20.02Q119.63 19.82 120.04 19.80Q120.46 19.78 120.95 19.63Q121.34 19.53 121.61 19.46Q121.88 19.38 122.17 19.34Q122.41 19.29 122.63 19.19Q122.85 19.09 123.10 19.09Q123.49 19.09 123.80 19.19Q124.12 19.29 124.41 19.04Q124.95 18.90 125.39 18.95Q125.83 18.99 126.37 18.99Q126.66 18.99 126.93 18.97Q127.20 18.95 127.44 18.95Q127.64 18.95 127.78 18.99Q127.93 19.04 128.08 19.09Q128.27 19.09 128.47 19.07Q128.66 19.04 128.91 19.04Q129.54 19.04 130.40 19.17Q131.25 19.29 132.03 19.38Q132.37 19.38 132.76 19.48Q133.15 19.58 133.54 19.53Q134.52 19.73 135.08 19.92Q135.64 20.12 136.33 20.26Q136.57 20.31 136.82 20.31Q137.06 20.31 137.16 20.46Q138.13 20.85 139.11 21.17Q140.09 21.48 140.92 22.02Q141.16 22.17 141.41 22.36Q141.65 22.56 141.89 22.66Q142.29 22.90 142.68 23.10Q143.07 23.29 143.21 23.63Q143.60 23.73 143.87 23.97Q144.14 24.22 144.48 24.32Q144.87 24.76 145.34 25.12Q145.80 25.49 146.04 26.03Q146.44 26.27 146.63 26.56Q146.83 26.86 147.07 27.10Q147.46 28.08 147.85 28.83Q148.24 29.59 148.29 30.57Q148.54 31.10 148.80 31.84Q149.07 32.57 148.54 33.11Q148.39 33.50 148.17 33.86Q147.95 34.23 147.80 34.62Q147.75 34.86 147.71 35.28Q147.66 35.69 147.75 35.89Q147.90 36.18 148.24 36.47Q148.58 36.77 148.78 37.11Q148.83 37.26 148.83 37.40Q148.83 37.55 148.93 37.65Q148.73 37.99 148.61 38.50Q148.49 39.01 148.29 39.50Q148.24 39.99 148.27 40.01Q148.29 40.04 148.29 40.14Q147.71 41.21 147.41 41.87Q147.12 42.53 146.63 43.16Q146.53 43.36 146.41 43.58Q146.29 43.80 146.09 43.99Q145.95 44.19 145.73 44.31Q145.51 44.43 145.51 44.68M114.11 28.03Q114.26 27.78 114.26 27.20Q114.26 26.61 114.06 26.51Q113.82 26.61 113.55 26.78Q113.28 26.95 113.18 27.25Q113.04 27.73 113.23 28.03Q113.38 28.17 113.70 28.20Q114.01 28.22 114.11 28.03M118.90 22.85Q119.19 22.56 119.19 22.22Q118.31 22.12 118.07 22.56Q117.53 22.80 117.29 23.32Q117.04 23.83 116.60 24.12Q116.41 24.22 116.11 24.37Q115.82 24.51 115.58 24.76Q115.48 24.85 115.41 25.02Q115.33 25.20 115.33 25.34Q115.38 25.44 115.55 25.51Q115.72 25.59 115.82 25.59Q116.16 25.59 116.36 25.32Q116.55 25.05 116.80 24.80Q117.09 24.66 117.29 24.41Q117.48 24.17 117.68 23.97Q117.92 23.68 118.26 23.41Q118.60 23.14 118.90 22.85M119.58 44.78Q119.82 44.78 120.00 44.58Q120.17 44.38 120.17 44.19Q120.21 44.04 120.12 43.92Q120.02 43.80 119.92 43.70Q119.73 43.46 119.56 43.09Q119.38 42.72 119.29 42.48Q119.19 42.19 119.19 41.89Q119.19 41.60 119.19 41.33Q119.19 41.06 119.14 40.84Q119.09 40.63 118.85 40.43Q118.55 40.77 118.60 41.19Q118.65 41.60 118.55 42.14Q118.46 42.77 118.51 43.38Q118.55 43.99 118.80 44.29Q118.90 44.38 119.21 44.56Q119.53 44.73 119.58 44.78M136.52 37.70Q136.62 36.96 136.65 36.25Q136.67 35.55 136.77 34.86Q136.87 34.47 137.06 34.11Q137.26 33.74 137.30 33.35Q137.40 32.71 137.23 32.08Q137.06 31.45 137.01 30.76Q137.01 30.08 137.08 29.44Q137.16 28.81 137.21 28.13Q137.21 27.88 137.13 27.78Q137.06 27.69 137.06 27.49Q136.96 27.25 136.99 27.05Q137.01 26.86 136.91 26.76Q136.87 26.66 136.69 26.49Q136.52 26.32 136.43 26.22Q136.18 25.98 135.79 25.83Q135.40 25.68 135.11 25.59Q134.96 25.39 134.74 25.24Q134.52 25.10 134.42 24.80Q134.33 24.76 134.20 24.63Q134.08 24.51 133.89 24.51Q133.59 24.46 133.37 24.61Q133.15 24.76 132.91 24.80Q132.47 24.80 132.42 24.83Q132.37 24.85 132.28 24.85Q131.59 24.80 131.45 24.76Q131.30 24.71 131.05 24.66Q130.52 24.56 130.05 24.56Q129.59 24.56 129.25 24.27Q129.10 24.17 129.00 24.00Q128.91 23.83 128.81 23.73Q128.66 23.68 128.27 23.58Q127.73 23.63 127.37 24.07Q127.00 24.51 126.61 24.61Q126.03 24.56 125.85 24.58Q125.68 24.61 125.44 24.66Q124.80 24.76 124.37 24.93Q123.93 25.10 123.44 25.34Q123.10 25.73 122.90 26.17Q122.71 26.61 122.46 27.20Q122.36 27.59 122.41 27.91Q122.46 28.22 122.46 28.47Q122.36 29.00 122.31 29.61Q122.27 30.22 122.17 30.76Q122.07 31.15 122.02 31.57Q121.97 31.98 121.88 32.37Q121.83 32.57 121.80 32.76Q121.78 32.96 121.73 33.15Q121.73 33.98 121.66 34.25Q121.58 34.52 121.48 34.81Q121.14 35.16 121.00 35.57Q120.85 35.99 120.75 36.38Q120.65 37.11 120.80 37.87Q120.95 38.62 121.00 39.31Q121.04 40.04 121.00 40.65Q120.95 41.26 121.00 41.89Q121.09 42.09 121.26 42.16Q121.44 42.24 121.48 42.43Q121.83 42.68 122.09 42.87Q122.36 43.07 122.75 43.26Q122.90 43.36 123.02 43.41Q123.14 43.46 123.29 43.55Q123.58 43.65 123.85 43.65Q124.12 43.65 124.37 43.75Q124.51 43.75 124.63 43.80Q124.76 43.85 124.90 43.90Q125.44 43.99 125.95 44.04Q126.46 44.09 126.81 44.29Q127.88 44.38 128.74 44.43Q129.59 44.48 130.57 44.58Q131.20 44.58 131.86 44.48Q132.52 44.38 133.11 44.24Q133.50 44.14 133.91 44.04Q134.33 43.95 134.62 43.75Q134.86 43.65 135.21 43.29Q135.55 42.92 135.74 42.68Q135.94 42.43 135.99 42.07Q136.04 41.70 136.13 41.31Q136.18 41.02 136.23 40.75Q136.28 40.48 136.33 40.23Q136.43 39.65 136.43 38.99Q136.43 38.33 136.52 37.70M145.02 27.88Q145.12 27.34 144.70 27.05Q144.29 26.76 143.95 26.42Q143.60 26.56 143.60 26.83Q143.60 27.10 143.82 27.34Q144.04 27.59 144.36 27.76Q144.68 27.93 145.02 27.88M145.80 32.23Q145.95 32.42 145.90 32.71Q145.85 33.01 146.04 33.11Q146.14 32.71 146.41 32.47Q146.68 32.23 146.78 31.84Q146.88 31.59 146.78 31.30Q146.68 31.01 146.63 30.71Q146.39 29.79 146.04 29.49Q145.80 30.22 145.83 30.88Q145.85 31.54 145.80 32.23M114.94 21.58Q114.70 22.22 114.18 22.56Q113.67 22.90 112.94 22.80Q112.84 22.07 113.40 21.66Q113.96 21.24 114.55 21.09Q114.79 20.90 115.01 20.75Q115.23 20.61 115.53 20.61Q115.53 20.90 115.28 21.02Q115.04 21.14 114.84 21.34L114.94 21.58M150.63 28.47Q150.73 28.81 150.88 29.22Q151.03 29.64 150.88 30.03Q150.78 30.32 150.63 30.59Q150.49 30.86 150.20 30.96Q149.76 29.30 149.17 28.15Q148.58 27.00 148.00 25.83Q148.24 25.54 148.51 25.66Q148.78 25.78 149.02 26.03Q149.32 26.32 149.49 26.59Q149.66 26.86 149.90 27.20Q150 27.39 150.12 27.51Q150.24 27.64 150.34 27.83Q150.44 27.93 150.49 28.13Q150.54 28.32 150.63 28.47M130.47 25.98Q130.86 25.88 131.32 26.05Q131.79 26.22 131.69 26.61Q131.64 26.86 131.23 26.98Q130.81 27.10 130.57 27.00Q130.27 26.90 130.13 26.49Q129.98 26.07 130.47 25.98M134.86 26.66Q135.01 26.66 135.11 26.78Q135.21 26.90 135.30 27.00Q135.45 27.20 135.64 27.56Q135.84 27.93 135.94 28.32Q136.04 28.71 136.04 29.13Q136.04 29.54 135.84 29.88Q135.35 30.03 134.96 29.79Q134.67 29.39 134.72 28.78Q134.77 28.17 134.52 27.78Q134.28 27.34 133.76 27.34Q133.25 27.34 132.86 27.05Q132.91 26.86 132.84 26.64Q132.76 26.42 132.96 26.32Q133.50 26.42 133.98 26.49Q134.47 26.56 134.86 26.66M148.93 42.33Q149.17 43.26 148.66 43.92Q148.14 44.58 147.75 44.97Q147.85 45.65 147.56 46.02Q147.27 46.39 146.92 46.73Q146.68 46.78 146.26 46.97Q145.85 47.17 145.65 47.41Q145.21 47.90 144.87 48.51Q144.53 49.12 143.99 49.51Q143.70 49.56 143.31 49.66Q142.92 49.76 142.58 49.66Q142.48 49.61 142.24 49.34Q141.99 49.07 142.04 48.97Q142.04 48.78 142.24 48.68Q142.43 48.58 142.48 48.34Q142.72 48.24 142.97 48.22Q143.21 48.19 143.46 48.05Q144.09 47.46 144.46 47.34Q144.82 47.22 145.12 46.92Q145.36 46.63 145.61 46.36Q145.85 46.09 146.09 45.85Q146.48 45.46 146.80 45.14Q147.12 44.82 147.46 44.43Q147.71 44.09 147.90 43.73Q148.10 43.36 148.34 42.97Q148.44 42.77 148.46 42.60Q148.49 42.43 148.58 42.33L148.93 42.33M140.23 49.90Q140.48 49.71 141.06 49.61Q141.65 49.51 141.85 49.90Q141.94 50 141.94 50.22Q141.94 50.44 141.80 50.68Q141.65 50.93 141.09 51.00Q140.53 51.07 140.19 51.07Q139.79 50.98 139.87 50.54Q139.94 50.10 140.23 49.90M122.75 50.29Q122.46 50.73 122.05 50.61Q121.63 50.49 121.24 50.39Q121.09 50.34 120.92 50.37Q120.75 50.39 120.61 50.34Q120.21 50.24 119.87 50.02Q119.53 49.80 119.14 49.71Q118.99 49.66 118.80 49.58Q118.60 49.51 118.46 49.39Q118.31 49.27 118.29 49.12Q118.26 48.97 118.46 48.78Q118.60 48.58 119.09 48.51Q119.58 48.44 119.78 48.54Q120.17 48.88 120.21 48.85Q120.26 48.83 120.36 48.88Q120.70 49.32 120.78 49.37Q120.85 49.41 120.90 49.51Q121.19 49.90 121.36 49.90Q121.53 49.90 121.68 49.95Q121.92 50.05 122.19 50.12Q122.46 50.20 122.75 50.29M109.67 27.44Q109.62 27.59 109.69 27.78Q109.77 27.98 109.72 28.22Q109.62 28.56 109.57 29.05Q109.52 29.54 109.33 29.79Q109.23 29.88 108.91 30.00Q108.59 30.13 108.35 30.03Q108.25 29.93 108.13 29.71Q108.01 29.49 108.01 29.39Q108.01 29.10 108.15 28.69Q108.30 28.27 108.45 27.98Q108.74 27.34 109.06 26.73Q109.38 26.12 109.72 25.63Q109.96 25.34 110.21 25.15Q110.45 24.95 110.69 24.71Q111.08 24.71 111.16 25.10Q111.23 25.49 110.99 25.78Q110.45 26.12 110.08 26.66Q109.72 27.20 109.67 27.44ZM169.63 20.95Q169.63 20.85 169.43 20.78Q169.24 20.70 169.04 20.63Q168.85 20.56 168.68 20.43Q168.51 20.31 168.51 20.17Q168.51 20.02 168.70 19.97Q168.90 19.92 168.99 19.92Q169.38 19.87 169.75 20.04Q170.12 20.21 170.41 20.31Q170.80 20.56 171.02 21.31Q171.24 22.07 171.19 22.71Q171.19 22.90 171.12 23.14Q171.04 23.39 171.04 23.68Q171.04 23.93 171.04 24.19Q171.04 24.46 171.14 24.61Q171.34 25 171.58 25.37Q171.83 25.73 171.53 26.17Q171.19 26.37 170.78 26.25Q170.36 26.12 170.31 25.73Q170.26 25.54 170.31 25.32Q170.36 25.10 170.36 24.85Q170.36 24.32 170.21 23.68Q170.07 23.05 170.07 22.51Q170.07 21.97 169.95 21.61Q169.82 21.24 169.63 20.95M184.28 48.88Q184.03 48.97 183.86 49.15Q183.69 49.32 183.45 49.41Q183.11 49.51 182.69 49.46Q182.28 49.41 181.84 49.46Q181.40 49.46 181.03 49.56Q180.66 49.66 180.27 49.51Q180.13 49.46 180.03 49.34Q179.93 49.22 179.79 49.17Q179.10 48.93 178.81 48.88Q178.52 48.83 178.13 48.93Q177.98 48.97 177.86 49.07Q177.73 49.17 177.49 49.27Q177.20 49.37 176.93 49.37Q176.66 49.37 176.39 49.32Q176.12 49.27 175.83 49.27Q175.54 49.27 175.24 49.41Q174.61 49.17 173.73 49.12Q172.85 49.07 172.46 49.66Q172.07 49.76 171.61 49.71Q171.14 49.66 170.70 49.66Q170.56 49.66 170.41 49.71Q170.26 49.76 170.17 49.76Q169.73 49.66 169.53 49.68Q169.34 49.71 169.14 49.71Q168.36 49.61 167.97 49.66Q167.58 49.71 167.29 49.61Q167.04 49.56 166.89 49.39Q166.75 49.22 166.55 49.05Q166.36 48.88 166.14 48.78Q165.92 48.68 165.63 48.78Q165.48 48.83 165.26 49.00Q165.04 49.17 164.89 49.27Q164.79 49.46 164.75 49.58Q164.70 49.71 164.50 49.80Q164.26 49.90 163.99 49.88Q163.72 49.85 163.48 49.90Q162.84 49.95 162.35 50.05Q161.87 50.15 161.33 50Q161.04 50.15 160.72 50.02Q160.40 49.90 160.16 50.15Q159.86 50.10 159.50 50.05Q159.13 50 158.84 50.15Q158.59 50.05 158.45 49.90Q158.30 49.76 158.15 49.56Q158.06 49.46 157.91 49.39Q157.76 49.32 157.67 49.22Q157.57 49.12 157.52 48.95Q157.47 48.78 157.28 48.73Q157.32 48.39 157.06 48.17Q156.79 47.95 156.69 47.61Q156.49 47.17 156.47 46.26Q156.45 45.36 156.45 44.68Q156.40 43.75 156.40 42.70Q156.40 41.65 156.40 40.67Q156.40 40.28 156.32 39.87Q156.25 39.45 156.25 39.06Q156.25 38.77 156.30 38.55Q156.35 38.33 156.30 38.13Q156.30 37.99 156.25 37.84Q156.20 37.70 156.20 37.60Q156.20 37.16 156.52 36.79Q156.84 36.43 156.69 35.69Q156.64 35.35 156.35 35.16Q156.05 34.96 155.96 34.62Q155.86 34.28 155.93 33.74Q156.01 33.20 156.01 32.81Q155.96 32.57 155.93 32.42Q155.91 32.28 155.91 32.13Q155.91 31.59 156.10 31.30Q156.30 31.01 156.59 30.52Q156.64 29.54 156.25 28.56Q156.15 28.37 156.05 28.22Q155.96 28.08 155.91 27.93Q155.81 27.59 155.81 27.20Q155.81 26.81 155.81 26.37Q155.81 25.54 155.71 24.56Q155.62 23.58 156.01 22.85Q156.40 22.46 156.98 22.22Q157.57 21.97 158.15 21.78Q158.40 21.92 158.84 21.88Q159.28 21.83 159.67 21.83Q160.74 21.88 161.40 21.78Q162.06 21.68 162.70 21.73Q163.09 21.78 163.43 21.70Q163.77 21.63 164.11 21.63Q164.36 21.63 164.60 21.66Q164.84 21.68 165.14 21.68Q165.87 21.58 166.58 21.58Q167.29 21.58 168.02 21.53Q168.31 21.63 168.58 21.80Q168.85 21.97 168.95 22.46Q168.99 22.71 168.95 22.92Q168.90 23.14 168.90 23.34Q168.95 23.58 168.97 23.88Q168.99 24.17 168.99 24.56Q168.99 24.71 168.97 24.85Q168.95 25 168.95 25.20Q168.90 25.59 168.95 26.05Q168.99 26.51 169.04 26.95Q169.09 27.54 169.07 28.13Q169.04 28.71 169.19 29.25Q169.34 29.83 169.31 29.98Q169.29 30.13 169.29 30.27Q169.29 30.96 169.29 31.59Q169.29 32.23 169.34 32.86Q169.38 33.40 169.38 33.67Q169.38 33.94 169.41 34.23Q169.43 34.52 169.43 34.81Q169.43 35.11 169.29 35.35Q169.19 35.60 169.04 35.72Q168.90 35.84 168.80 36.04Q168.65 36.33 168.58 36.84Q168.51 37.35 168.60 37.74Q168.70 37.99 168.85 38.23Q168.99 38.48 169.09 38.72Q169.19 39.11 169.19 39.43Q169.19 39.75 169.24 40.09Q169.34 40.82 169.51 41.55Q169.68 42.29 169.68 43.26Q169.92 43.46 170.31 43.60Q170.65 43.51 171.00 43.46Q171.34 43.41 171.73 43.36Q171.88 43.36 172.02 43.41Q172.17 43.46 172.27 43.41Q172.71 43.26 172.80 43.31Q172.90 43.36 173.00 43.36Q173.54 43.36 174.02 43.29Q174.51 43.21 174.95 43.21Q175.39 43.21 175.54 43.29Q175.68 43.36 175.88 43.41Q175.98 43.51 176.15 43.53Q176.32 43.55 176.42 43.60Q176.51 43.70 176.64 43.82Q176.76 43.95 176.90 43.99Q177.15 44.09 177.39 44.19Q177.64 44.29 177.98 44.19Q178.22 44.14 178.49 43.97Q178.76 43.80 179.05 43.70Q179.30 43.60 179.44 43.63Q179.59 43.65 179.69 43.46Q180.42 43.41 181.20 43.33Q181.98 43.26 182.67 43.36Q183.30 43.51 183.50 43.43Q183.69 43.36 183.84 43.36Q184.18 43.46 184.38 43.80Q184.57 44.14 184.72 44.38Q184.62 44.87 184.67 45.29Q184.72 45.70 184.81 46.14Q184.91 46.58 184.99 47.02Q185.06 47.46 184.96 47.95Q184.81 48.19 184.59 48.36Q184.38 48.54 184.28 48.88M157.96 23.93Q157.71 24.41 157.89 24.88Q158.06 25.34 158.06 25.88Q158.35 26.17 158.28 26.29Q158.20 26.42 158.20 26.66Q158.25 26.90 158.45 27.10Q158.64 27.29 158.89 27.34Q159.13 27.15 159.03 26.88Q158.94 26.61 158.89 26.37Q158.84 26.12 158.91 25.59Q158.98 25.05 159.13 24.95Q159.23 24.85 159.38 24.85Q159.52 24.85 159.67 24.76Q160.06 24.56 160.11 24.15Q160.16 23.73 159.81 23.39Q158.89 23.49 158.54 23.51Q158.20 23.54 157.96 23.93M160.01 42.68Q160.06 42.43 159.86 42.19Q159.67 41.94 159.57 41.70Q159.33 41.70 159.18 41.75Q159.03 41.80 158.79 41.85Q158.59 42.09 158.62 42.46Q158.64 42.82 158.89 43.02Q159.23 43.12 159.57 43.04Q159.91 42.97 160.01 42.68M161.04 47.85Q161.43 47.71 161.57 47.36Q161.72 47.02 161.47 46.73Q161.33 46.53 161.06 46.48Q160.79 46.44 160.50 46.41Q160.21 46.39 159.96 46.31Q159.72 46.24 159.67 46.00Q159.62 45.85 159.69 45.70Q159.77 45.56 159.81 45.41Q159.81 45.02 159.67 44.65Q159.52 44.29 159.13 44.38Q158.84 44.43 158.72 44.82Q158.59 45.21 158.54 45.46Q158.45 45.85 158.45 46.04Q158.40 46.14 158.35 46.34Q158.30 46.53 158.30 46.63Q158.35 46.92 158.67 47.31Q158.98 47.71 159.23 47.80Q159.62 47.90 160.11 47.90Q160.60 47.90 161.04 47.85M163.67 24.95Q164.06 24.95 164.06 24.44Q164.06 23.93 163.77 23.68Q163.48 23.58 163.18 23.54Q162.89 23.49 162.50 23.58Q162.35 23.63 162.11 23.78Q161.87 23.93 161.82 24.02Q161.62 24.51 161.99 24.78Q162.35 25.05 162.74 25.05Q162.99 25 163.26 24.98Q163.53 24.95 163.67 24.95M154.44 31.15Q153.91 31.15 153.71 30.96Q153.71 30.27 153.59 29.69Q153.47 29.10 153.52 28.56Q153.61 27.98 153.56 27.81Q153.52 27.64 153.52 27.39Q153.52 27.15 153.56 27.00Q153.61 26.86 153.56 26.66Q153.56 26.46 153.52 26.34Q153.47 26.22 153.47 26.07Q153.42 25.83 153.52 25.54Q153.61 25.24 153.61 25Q153.71 24.80 153.93 24.66Q154.15 24.51 154.35 24.76Q154.35 25.20 154.37 25.63Q154.39 26.07 154.44 26.61Q154.44 27.05 154.44 27.44Q154.44 27.83 154.59 28.13Q155.08 28.86 155.03 29.39Q154.98 29.93 154.88 30.32Q154.79 30.62 154.74 30.81Q154.69 31.01 154.44 31.15M171.34 39.70Q171.53 40.09 171.75 40.33Q171.97 40.58 172.22 40.82Q172.41 40.77 172.58 40.84Q172.75 40.92 173.00 40.92Q173.24 40.97 173.49 40.94Q173.73 40.92 173.83 41.16Q173.78 41.41 173.80 41.46Q173.83 41.50 173.68 41.75Q173.54 41.85 173.41 41.94Q173.29 42.04 173.14 42.09Q172.56 41.99 172.29 42.11Q172.02 42.24 171.73 42.19Q171.39 42.14 171.04 42.02Q170.70 41.89 170.56 41.65Q170.41 41.41 170.43 41.19Q170.46 40.97 170.46 40.58Q170.51 39.94 170.29 39.43Q170.07 38.92 170.17 38.23Q170.41 37.94 170.73 38.06Q171.04 38.18 171.14 38.43Q171.24 38.67 171.24 39.04Q171.24 39.40 171.34 39.70M155.52 48.14Q155.52 48.88 155.81 49.32Q156.10 49.76 156.52 50.05Q156.93 50.34 157.42 50.56Q157.91 50.78 158.30 51.07Q158.30 51.27 158.35 51.42Q158.40 51.56 158.30 51.66Q157.71 51.90 157.13 51.76Q156.45 51.37 155.86 50.95Q155.27 50.54 154.93 49.85Q154.64 49.32 154.61 48.46Q154.59 47.61 154.69 46.92Q155.27 46.97 155.27 47.44Q155.27 47.90 155.52 48.14M186.91 48.88Q187.11 50.15 186.38 50.76Q185.64 51.37 184.62 51.37Q184.28 51.37 184.01 51.27Q183.74 51.17 183.40 51.22Q183.40 50.68 183.76 50.68Q184.13 50.68 184.23 50.44Q184.96 50.49 185.28 50.02Q185.60 49.56 185.89 49.12Q185.99 48.73 185.89 48.27Q185.79 47.80 185.99 47.51Q186.18 47.22 186.38 47.31Q186.57 47.41 186.72 47.68Q186.87 47.95 186.91 48.32Q186.96 48.68 186.91 48.88ZM233.89 49.66Q233.94 49.85 233.84 49.95Q233.74 50.05 233.84 50.24Q233.20 50.88 231.98 51.22Q231.59 51.37 231.10 51.37Q230.81 51.37 230.52 51.32Q230.22 51.27 229.98 51.32Q229.59 51.46 229.42 51.81Q229.25 52.15 229.15 52.54Q228.61 52.78 228.10 52.86Q227.59 52.93 227.15 53.13Q226.95 53.22 226.83 53.30Q226.71 53.37 226.46 53.47Q226.22 53.56 226.00 53.56Q225.78 53.56 225.59 53.86Q224.95 54.00 224.32 54.27Q223.68 54.54 223.05 54.71Q222.41 54.88 221.78 54.91Q221.14 54.93 220.56 54.59Q219.73 53.61 219.34 52.95Q218.95 52.29 218.41 51.66Q218.21 51.42 217.99 51.20Q217.77 50.98 217.68 50.73Q217.33 50.05 217.14 49.76Q216.94 49.46 216.75 49.12Q216.31 48.49 215.99 47.80Q215.67 47.12 215.19 46.53Q213.48 46.53 211.87 46.73Q210.25 46.92 208.74 46.92Q208.50 46.92 208.28 46.88Q208.06 46.83 207.81 46.78Q207.57 46.78 207.32 46.83Q207.08 46.88 206.84 46.83Q206.20 46.73 205.98 46.61Q205.76 46.48 205.47 46.44Q204.83 46.34 204.30 46.58Q203.76 46.83 203.32 47.12Q203.03 46.97 202.83 47.09Q202.64 47.22 202.34 47.31Q202.00 47.41 201.59 47.41Q201.17 47.41 200.78 47.51Q200.39 47.61 199.95 47.63Q199.51 47.66 199.22 47.85Q199.12 47.95 198.95 48.36Q198.78 48.78 198.68 48.93Q198.63 49.07 198.63 49.22Q198.63 49.37 198.54 49.51Q198.24 50.34 198.05 51.34Q197.85 52.34 197.56 53.17Q197.31 53.37 197.14 53.59Q196.97 53.81 196.73 53.86Q196.39 53.96 195.90 53.88Q195.41 53.81 195.02 53.86Q194.82 53.91 194.63 53.96Q194.43 54.00 194.19 54.00Q193.75 54.05 193.29 54.00Q192.82 53.96 192.48 54.05Q192.29 54.10 192.04 54.27Q191.80 54.44 191.46 54.44Q191.06 54.49 190.67 54.30Q190.43 54.20 190.21 53.93Q189.99 53.66 189.94 53.27Q189.94 52.93 190.04 52.44Q190.14 51.95 190.28 51.51Q190.43 51.07 190.63 50.63Q190.87 50.10 191.11 49.44Q191.36 48.78 191.60 48.19Q191.16 48.10 190.63 48.17Q190.09 48.24 189.55 48.34Q189.31 48.39 188.99 48.39Q188.67 48.39 188.43 48.39Q187.70 48.34 187.55 48.00Q187.40 47.66 187.38 47.22Q187.35 46.78 187.43 46.34Q187.50 45.90 187.65 45.65Q187.65 44.92 187.50 44.34Q187.50 44.19 187.45 44.04Q187.40 43.90 187.40 43.80Q187.60 43.12 187.57 42.72Q187.55 42.33 187.70 42.09Q187.84 41.85 188.09 41.70Q188.33 41.75 188.53 41.63Q188.72 41.50 188.96 41.46Q189.60 41.36 190.21 41.41Q190.82 41.46 191.46 41.26Q192.04 41.80 193.02 41.50Q193.16 41.46 193.36 41.41Q193.55 41.36 193.75 41.31Q194.24 41.11 194.43 41.06Q195.07 41.02 195.19 40.58Q195.31 40.14 195.07 39.84Q195.46 38.92 195.78 37.99Q196.09 37.06 196.48 36.13Q196.63 35.45 196.85 34.84Q197.07 34.23 197.51 33.84Q197.71 33.64 198.05 33.54Q198.39 33.45 198.54 33.20Q198.68 32.96 198.71 32.50Q198.73 32.03 198.63 31.79Q198.58 31.69 198.46 31.54Q198.34 31.40 198.34 31.25Q198.29 31.10 198.39 30.93Q198.49 30.76 198.58 30.52Q199.17 29.15 199.78 27.64Q200.39 26.12 201.03 24.66Q201.27 23.58 201.68 22.66Q202.10 21.73 202.39 20.70Q202.10 20.17 201.59 19.41Q201.07 18.65 201.17 17.82Q201.22 17.48 201.39 17.31Q201.56 17.14 201.81 16.89Q202.20 16.65 202.59 16.53Q202.98 16.41 203.37 16.21Q203.61 16.11 203.83 15.97Q204.05 15.82 204.30 15.72Q204.54 15.63 204.76 15.60Q204.98 15.58 205.18 15.43Q206.98 15.14 208.40 14.21Q208.54 14.11 208.67 13.96Q208.79 13.82 209.03 13.72Q209.28 13.62 209.59 13.50Q209.91 13.38 210.30 13.23Q211.04 12.89 211.89 12.79Q212.74 12.70 213.48 13.09Q213.77 12.99 213.87 13.13Q213.96 13.28 214.21 13.53Q214.31 13.72 214.45 13.82Q214.60 13.92 214.75 14.16Q215.28 14.89 215.70 15.87Q216.11 16.85 216.65 17.68Q216.80 17.92 216.92 18.19Q217.04 18.46 217.24 18.70Q217.33 18.95 217.46 19.12Q217.58 19.29 217.72 19.53Q217.82 19.68 217.90 19.80Q217.97 19.92 218.02 20.02Q218.12 20.26 218.26 20.48Q218.41 20.70 218.46 20.85Q218.51 21.09 218.43 21.29Q218.36 21.48 218.36 21.68Q218.46 22.46 218.90 23.05Q219.34 23.63 219.78 24.02Q219.92 24.17 220.12 24.32Q220.31 24.46 220.51 24.61Q220.65 24.76 220.73 24.95Q220.80 25.15 221.04 25.24Q221.29 25.63 221.46 26.12Q221.63 26.61 221.92 26.95Q222.17 27.59 222.56 28.17Q222.95 28.76 223.24 29.39Q223.34 29.64 223.44 29.88Q223.54 30.13 223.63 30.37Q224.07 31.35 224.61 32.32Q225.15 33.30 225.63 34.28Q225.88 34.47 225.98 34.72Q226.07 34.96 226.22 35.21Q226.46 35.45 226.73 35.82Q227.00 36.18 227.10 36.67Q227.15 36.96 227.12 37.33Q227.10 37.70 227.05 38.06Q227.00 38.43 227.03 38.79Q227.05 39.16 227.25 39.45Q227.78 40.23 228.86 40.63Q228.96 40.87 229.20 41.04Q229.44 41.21 229.64 41.46Q230.42 42.92 231.05 43.92Q231.69 44.92 232.23 46.04Q232.32 46.29 232.50 46.56Q232.67 46.83 232.76 47.07Q232.91 47.31 232.96 47.53Q233.01 47.75 233.11 47.95Q233.20 48.19 233.30 48.39Q233.40 48.58 233.50 48.88Q233.59 49.07 233.74 49.29Q233.89 49.51 233.89 49.66M190.97 44.68Q191.06 44.04 190.70 43.85Q190.33 43.65 189.94 43.55Q189.16 43.51 189.01 43.92Q188.87 44.34 189.06 44.58Q189.31 44.82 189.62 45.02Q189.94 45.21 190.28 45.31Q190.53 45.21 190.67 45.04Q190.82 44.87 190.97 44.68M204.25 22.17Q204.15 22.46 203.98 22.78Q203.81 23.10 203.81 23.24Q203.81 23.49 204.03 23.75Q204.25 24.02 204.49 23.97Q204.64 23.93 204.79 23.68Q204.93 23.44 205.03 23.24Q205.18 23.00 205.25 22.80Q205.32 22.61 205.42 22.36Q205.57 21.97 205.91 21.53Q206.25 21.09 206.25 20.70Q206.25 20.51 206.15 20.29Q206.05 20.07 205.96 19.82Q205.71 19.29 205.49 18.82Q205.27 18.36 204.74 18.46Q204.25 18.55 204.20 18.90Q204.00 19.43 204.32 19.75Q204.64 20.07 204.64 20.56Q204.69 21.04 204.54 21.41Q204.39 21.78 204.25 22.17M202.88 25.24Q202.49 25.29 202.32 25.59Q202.15 25.88 202.12 26.25Q202.10 26.61 202.25 26.95Q202.39 27.29 202.64 27.44Q203.08 27.39 203.27 27.12Q203.47 26.86 203.44 26.51Q203.42 26.17 203.25 25.81Q203.08 25.44 202.88 25.24M212.11 39.84Q212.21 39.45 211.96 39.23Q211.72 39.01 211.67 38.62Q211.62 38.23 211.72 37.87Q211.82 37.50 211.72 37.16Q211.62 36.77 211.35 36.57Q211.08 36.38 210.94 36.08Q210.40 36.08 210.23 35.64Q210.06 35.21 209.81 34.72Q209.28 33.94 209.16 33.57Q209.03 33.20 208.74 32.96Q208.30 31.88 207.67 30.83Q207.03 29.79 206.49 28.76Q206.20 29.00 206.15 29.44Q206.10 29.88 206.01 30.27Q205.71 30.86 205.69 30.98Q205.66 31.10 205.62 31.20Q205.42 31.54 205.22 31.49Q205.03 31.45 204.74 31.54Q204.25 31.64 204.05 32.15Q203.86 32.67 203.91 33.20Q203.91 33.45 204.00 33.69Q204.10 33.94 204.10 34.18Q204.15 34.52 203.98 34.89Q203.81 35.25 203.61 35.64Q203.37 36.33 203.22 36.96Q203.08 37.60 202.73 38.13Q202.59 38.87 202.32 39.45Q202.05 40.04 201.95 40.72Q204.15 40.63 206.08 40.60Q208.01 40.58 209.86 40.28Q210.21 40.23 210.47 40.16Q210.74 40.09 211.04 40.09Q211.28 40.09 211.57 40.06Q211.87 40.04 212.11 39.84M218.65 45.90Q218.75 45.70 218.77 45.29Q218.80 44.87 218.75 44.73Q218.70 44.43 218.41 43.95Q218.12 43.46 217.97 43.36Q217.72 43.21 217.46 43.29Q217.19 43.36 216.80 43.36Q216.06 43.31 215.63 43.36Q215.19 43.41 214.79 43.46Q214.45 43.55 214.18 43.51Q213.92 43.46 213.72 43.51Q213.62 43.70 213.50 43.85Q213.38 43.99 213.33 44.24Q213.62 44.48 213.92 44.38Q214.21 44.29 214.70 44.34Q214.89 44.34 215.04 44.36Q215.19 44.38 215.33 44.34Q215.58 44.29 215.75 44.19Q215.92 44.09 216.06 44.09Q216.46 44.09 216.55 44.31Q216.65 44.53 216.80 44.78Q216.85 44.87 216.94 45.00Q217.04 45.12 217.14 45.31Q217.33 45.70 217.43 45.90Q217.53 46.09 217.87 46.19Q218.12 46.09 218.33 46.07Q218.55 46.04 218.65 45.90M223.29 35.79Q223.78 35.40 223.44 34.42Q223.34 34.23 223.17 34.06Q223.00 33.89 222.85 33.64Q222.75 33.45 222.63 33.20Q222.51 32.96 222.31 32.67Q222.22 32.42 222.09 32.23Q221.97 32.03 221.88 31.79Q221.83 31.59 221.83 31.45Q221.83 31.30 221.78 31.15Q221.68 30.96 221.58 30.74Q221.48 30.52 221.34 30.32Q221.09 29.93 220.87 29.71Q220.65 29.49 220.21 29.39Q220.07 29.54 219.80 29.59Q219.53 29.64 219.34 29.59Q219.14 30.27 219.60 30.64Q220.07 31.01 220.46 31.25Q220.90 31.79 221.12 32.86Q221.34 33.94 221.68 34.72Q221.73 34.91 221.80 35.06Q221.88 35.21 221.97 35.40Q222.22 35.74 222.49 35.82Q222.75 35.89 223.29 35.79M230.32 49.56Q230.47 49.51 230.79 49.19Q231.10 48.88 231.10 48.63Q231.10 48.58 230.91 48.10Q230.76 47.61 230.62 47.17Q230.47 46.73 229.98 46.83Q229.79 46.88 229.59 47.02Q229.39 47.17 229.30 47.41Q229.20 47.66 229.17 48.12Q229.15 48.58 229.30 48.83Q229.39 49.07 229.74 49.34Q230.08 49.61 230.32 49.56M215.97 14.55Q215.92 14.45 215.92 14.28Q215.92 14.11 215.87 14.01Q215.77 13.82 215.72 13.75Q215.67 13.67 215.67 13.48Q215.77 13.33 216.06 13.33Q216.36 13.33 216.55 13.33Q216.70 13.53 216.94 13.87Q217.04 14.11 217.16 14.33Q217.29 14.55 217.38 14.79Q217.58 15.33 217.63 15.38Q217.68 15.43 217.68 15.53Q217.68 15.63 217.53 15.77Q217.38 15.92 217.19 15.92Q216.94 15.87 216.72 15.50Q216.50 15.14 216.36 14.94Q216.26 14.84 216.14 14.75Q216.02 14.65 215.97 14.55M199.27 21.73Q199.41 21.48 199.61 21.12Q199.80 20.75 199.71 20.36Q199.66 20.17 199.46 19.95Q199.27 19.73 199.07 19.51Q198.88 19.29 198.75 19.04Q198.63 18.80 198.73 18.46Q198.73 18.41 198.90 18.12Q199.07 17.82 199.17 17.77Q199.56 18.21 199.66 18.48Q199.76 18.75 199.85 18.99Q200.10 19.38 200.34 19.95Q200.59 20.51 200.83 21.00Q200.78 21.48 200.56 21.78Q200.34 22.07 200.15 22.56Q200.05 22.85 199.95 23.10Q199.85 23.34 199.80 23.68Q198.97 23.19 199.00 22.73Q199.02 22.27 199.27 21.73M218.55 18.95Q218.36 18.55 218.09 18.19Q217.82 17.82 217.72 17.43Q217.97 17.33 218.16 17.41Q218.36 17.48 218.60 17.43Q218.80 17.68 218.97 17.90Q219.14 18.12 219.34 18.36Q219.43 18.85 219.73 19.14Q220.02 19.43 220.26 19.82Q220.51 20.21 220.61 20.56Q220.70 20.90 220.95 21.29Q221.48 22.27 222.05 23.24Q222.61 24.22 223.19 25.20Q223.14 25.34 223.19 25.56Q223.24 25.78 223.29 26.03Q223.34 26.27 223.29 26.44Q223.24 26.61 223.05 26.66Q222.85 26.66 222.61 26.42Q222.36 26.17 222.31 26.07Q222.22 25.98 222.17 25.81Q222.12 25.63 222.02 25.49Q221.92 25.39 221.85 25.24Q221.78 25.10 221.68 25Q221.48 24.71 221.36 24.41Q221.24 24.12 221.09 23.88Q221.00 23.73 220.80 23.61Q220.61 23.49 220.51 23.34Q220.26 23.10 220.12 22.66Q219.97 22.22 219.87 21.83Q219.78 21.44 219.65 21.07Q219.53 20.70 219.38 20.36Q219.09 20.12 218.95 19.73Q218.80 19.34 218.55 18.95M193.36 40.19Q192.97 40.28 192.43 40.21Q191.89 40.14 191.99 39.75Q192.04 39.55 192.48 39.33Q192.92 39.11 193.16 39.11Q193.36 39.01 193.41 38.89Q193.46 38.77 193.60 38.67Q193.65 38.13 194.19 37.79Q194.34 37.50 194.48 37.23Q194.63 36.96 194.78 36.67Q194.92 37.65 194.58 38.35Q194.24 39.06 194.09 39.94Q193.70 40.14 193.36 40.19M205.13 38.67Q205.27 38.77 205.57 38.77Q205.86 38.77 206.15 38.79Q206.45 38.82 206.67 38.89Q206.88 38.96 206.93 39.21Q205.96 39.75 205.10 39.77Q204.25 39.79 203.47 39.84Q203.22 39.50 203.42 39.11Q203.61 38.72 203.52 38.28Q203.76 38.09 203.88 37.84Q204.00 37.60 204.20 37.40Q204.15 37.06 204.32 36.77Q204.49 36.47 204.83 36.57Q204.98 36.82 204.96 37.13Q204.93 37.45 204.91 37.74Q204.88 38.04 204.88 38.28Q204.88 38.53 205.13 38.67M189.40 49.41Q189.65 49.51 189.67 49.85Q189.70 50.20 189.79 50.63Q189.60 50.73 189.48 50.90Q189.36 51.07 189.06 50.98Q188.62 51.03 188.38 50.73Q188.13 50.44 187.89 50.29Q187.74 50.24 187.35 50.34Q187.11 50.34 186.79 50.32Q186.47 50.29 186.23 50.34Q185.99 50.39 185.89 50.37Q185.79 50.34 185.55 50.24Q185.35 50.15 185.21 50Q185.06 49.85 185.01 49.56Q184.91 49.17 185.03 48.73Q185.16 48.29 185.16 47.90Q185.16 47.66 185.13 47.41Q185.11 47.17 185.21 46.97Q185.25 46.88 185.40 46.73Q185.55 46.58 185.72 46.48Q185.89 46.39 186.04 46.41Q186.18 46.44 186.23 46.63Q186.28 46.92 186.21 47.31Q186.13 47.71 186.08 48.10Q186.04 48.49 186.11 48.85Q186.18 49.22 186.47 49.46Q187.01 49.41 187.13 49.49Q187.26 49.56 187.40 49.56Q187.84 49.61 188.43 49.39Q189.01 49.17 189.40 49.41M202.44 48.34Q202.78 48.29 203.08 48.49Q202.69 49.07 202.25 49.07Q201.51 49.76 201.17 50.12Q200.83 50.49 200.59 50.98Q200.54 51.56 200.34 52.00Q200.15 52.44 199.90 52.83Q199.61 52.83 199.32 53.03Q199.12 52.83 199.27 52.61Q199.41 52.39 199.32 52.05Q199.41 51.27 199.61 50.73Q199.85 50.20 199.80 50.02Q199.76 49.85 199.85 49.71Q199.90 49.56 200.05 49.41Q200.20 49.27 200.24 49.17Q200.83 48.83 201.44 48.71Q202.05 48.58 202.44 48.34M230.91 52.39Q231.10 52.34 231.37 52.59Q231.64 52.83 231.59 53.03Q231.20 53.66 230.83 53.81Q230.47 53.96 230.13 54.05Q229.93 54.10 229.76 54.13Q229.59 54.15 229.44 54.00Q229.69 53.27 230.03 52.91Q230.37 52.54 230.91 52.39M226.95 54.44Q227.05 54.54 227.37 54.49Q227.69 54.44 227.69 54.69Q227.69 54.88 227.10 55.08Q226.51 55.27 226.37 55.37L222.95 57.08Q222.85 57.23 222.66 57.25Q222.46 57.28 222.31 57.37Q222.12 57.47 222.00 57.62Q221.88 57.76 221.58 57.81Q221.34 57.86 221.09 57.74Q220.85 57.62 220.61 57.57Q220.36 57.57 220.19 57.59Q220.02 57.62 219.87 57.57Q219.09 57.37 218.53 56.74Q217.97 56.10 217.58 55.57Q217.58 55.32 217.48 55.22Q217.38 55.13 217.33 54.93Q216.85 54.64 216.67 54.42Q216.50 54.20 216.60 53.86Q216.70 53.66 216.94 53.56Q217.19 53.47 217.33 53.56Q217.72 53.66 217.92 54.15Q218.12 54.64 218.46 55.03Q218.70 55.42 219.09 55.74Q219.48 56.05 219.87 56.30Q220.12 56.35 220.36 56.45Q220.61 56.54 220.85 56.54Q221.39 56.49 221.88 56.32Q222.36 56.15 222.90 56.10Q224.27 55.76 225.15 55.30Q226.03 54.83 226.95 54.44ZM240.97 18.80Q240.72 18.75 240.45 18.77Q240.19 18.80 239.97 18.77Q239.75 18.75 239.60 18.60Q239.45 18.46 239.50 18.07Q239.84 17.77 240.14 17.77Q240.43 17.77 240.67 17.72Q241.21 17.87 241.36 18.36Q241.21 18.70 240.97 18.80M238.04 18.75Q237.55 18.60 237.11 18.73Q236.67 18.85 236.23 19.04Q236.13 19.14 236.06 19.34Q235.99 19.53 235.89 19.73Q235.84 19.97 235.77 20.19Q235.69 20.41 235.69 20.61Q235.64 20.85 235.67 21.09Q235.69 21.34 235.45 21.44Q234.47 21.00 234.72 20.02Q234.72 19.87 234.79 19.70Q234.86 19.53 234.86 19.34Q234.91 18.95 234.94 18.65Q234.96 18.36 235.21 18.16Q235.45 17.92 235.77 17.94Q236.08 17.97 236.43 17.97Q237.21 17.77 237.48 17.97Q237.74 18.16 238.09 18.16Q238.13 18.65 238.04 18.75M256.01 46.04Q255.96 46.34 256.05 46.58Q256.15 46.83 256.15 47.07Q256.15 47.51 256.01 47.88Q255.86 48.24 255.76 48.54Q255.62 48.63 255.47 48.68Q255.32 48.73 255.27 48.93Q254.83 48.97 254.44 49.12Q253.86 49.02 253.37 49.05Q252.88 49.07 252.34 49.02Q252.15 49.02 251.81 49.00Q251.46 48.97 251.22 48.88Q250.44 48.54 249.71 48.14Q248.97 47.75 248.00 47.85Q247.80 47.85 247.66 47.92Q247.51 48.00 247.31 47.90Q246.92 48.10 246.53 48.10Q246.14 48.10 245.85 48.29Q245.21 48.39 244.63 48.51Q244.04 48.63 243.36 48.58Q243.07 48.54 242.77 48.56Q242.48 48.58 242.24 48.58Q241.89 48.58 241.55 48.54Q241.21 48.49 240.82 48.44Q240.28 48.44 240.04 48.39Q239.50 48.34 238.94 48.34Q238.38 48.34 237.87 48.22Q237.35 48.10 237.01 47.83Q236.67 47.56 236.67 46.88Q236.67 46.73 236.74 46.58Q236.82 46.44 236.82 46.29Q236.72 45.75 236.57 45.19Q236.43 44.63 236.57 44.24Q236.91 43.60 236.96 43.38Q237.01 43.16 237.26 42.97Q237.79 42.77 238.35 42.68Q238.92 42.58 239.60 42.58Q239.70 42.38 239.67 42.16Q239.65 41.94 239.70 41.70Q239.84 41.60 239.92 41.43Q239.99 41.26 240.23 41.21Q240.43 40.82 240.55 40.50Q240.67 40.19 240.58 39.79Q240.48 39.50 240.23 39.26Q239.99 39.01 239.99 38.62Q239.99 38.33 240.09 37.96Q240.19 37.60 240.23 37.21Q240.23 36.62 240.38 36.45Q240.53 36.28 240.63 36.13Q240.72 35.60 240.82 35.45Q240.92 35.30 241.02 35.06Q241.11 34.62 241.19 34.25Q241.26 33.89 241.26 33.35Q241.21 33.15 241.24 32.93Q241.26 32.71 241.16 32.52Q241.06 32.23 240.87 32.01Q240.67 31.79 240.58 31.54Q240.48 31.15 240.41 30.76Q240.33 30.37 240.38 29.98Q240.38 29.54 240.41 29.03Q240.43 28.52 240.43 27.98Q240.53 27.25 240.43 26.71Q240.23 26.03 240.23 25.83Q240.23 25.63 240.04 25.54Q239.55 25.63 239.01 25.71Q238.48 25.78 237.99 25.63Q237.65 25.39 237.26 25.15Q236.87 24.90 236.72 24.27Q236.62 23.88 236.74 23.41Q236.87 22.95 236.91 22.46Q236.96 21.88 236.91 21.39Q236.87 20.90 236.96 20.46Q237.06 20.12 237.30 19.97Q237.55 19.82 237.70 19.68Q238.48 19.58 239.28 19.56Q240.09 19.53 240.87 19.78Q241.02 20.21 241.50 20.41Q241.99 20.61 242.38 20.46Q242.53 20.41 242.60 20.29Q242.68 20.17 242.77 20.07Q243.26 19.87 243.73 19.97Q244.19 20.07 244.73 19.97Q245.41 20.07 246.09 20.09Q246.78 20.12 247.46 20.17Q247.71 20.17 247.90 20.19Q248.10 20.21 248.34 20.41Q248.49 21.34 249.61 21.34Q249.80 21.34 249.93 21.26Q250.05 21.19 250.24 21.09L250.83 21.09Q251.51 21.00 251.78 21.12Q252.05 21.24 252.29 21.24Q252.73 21.24 253.13 21.04Q253.47 20.95 253.69 20.78Q253.91 20.61 254.15 20.51Q254.49 20.56 254.91 20.53Q255.32 20.51 255.62 20.56Q256.45 20.65 256.84 20.90Q257.42 21.24 257.23 21.78Q257.32 22.27 257.37 22.90Q257.42 23.54 257.35 24.12Q257.28 24.71 257.08 25.20Q256.88 25.68 256.49 25.88Q256.25 25.78 256.03 25.90Q255.81 26.03 255.62 26.07Q255.18 26.17 254.71 26.12Q254.25 26.07 253.76 26.12Q253.71 26.46 253.64 26.71Q253.56 26.95 253.76 27.15Q253.61 27.93 253.61 28.54Q253.61 29.15 253.54 29.71Q253.47 30.27 253.30 30.76Q253.13 31.25 252.73 31.54Q252.54 32.08 252.54 32.59Q252.54 33.11 252.64 33.59Q252.73 34.08 252.83 34.59Q252.93 35.11 252.98 35.64Q253.03 35.89 252.95 36.13Q252.88 36.38 252.83 36.62Q252.73 38.04 252.88 39.60Q253.03 41.16 252.69 42.87Q253.22 43.02 253.69 42.99Q254.15 42.97 254.69 43.16Q254.83 43.26 254.96 43.33Q255.08 43.41 255.22 43.46Q255.57 43.60 255.79 43.68Q256.01 43.75 256.10 44.14Q256.15 44.24 256.15 44.43Q256.15 44.63 256.15 44.82Q256.20 45.21 256.13 45.48Q256.05 45.75 256.01 46.04M239.70 46.63Q239.94 46.58 240.16 46.41Q240.38 46.24 240.38 46.04Q240.33 45.90 240.04 45.70Q239.75 45.51 239.50 45.41Q239.26 45.31 239.16 45.41Q239.06 45.51 238.82 45.56Q238.72 45.80 238.65 45.97Q238.57 46.14 238.57 46.48Q239.11 46.58 239.31 46.63Q239.50 46.68 239.70 46.63M241.94 27.05Q242.48 27.10 242.68 26.98Q242.87 26.86 243.07 26.71Q243.12 26.17 243.36 25.63Q243.60 25.10 243.55 24.56Q243.51 24.17 243.31 23.95Q243.12 23.73 242.97 23.49Q242.33 23.34 241.80 23.14Q241.26 22.95 240.82 23.49Q240.92 23.68 241.09 23.68Q241.26 23.68 241.46 23.78Q241.75 23.93 241.94 24.46Q242.09 24.80 242.07 25.10Q242.04 25.39 241.99 25.68Q241.94 26.03 241.99 26.39Q242.04 26.76 241.94 27.05M243.41 29.98Q243.46 29.64 243.51 29.30Q243.55 28.96 243.31 28.76Q243.16 28.61 242.85 28.59Q242.53 28.56 242.38 28.66Q242.24 28.91 242.29 29.15Q242.33 29.39 242.33 29.69Q242.77 30.03 243.41 29.98M259.08 24.12Q258.74 24.41 258.62 24.10Q258.50 23.78 258.54 23.44Q258.69 23.24 258.91 23.27Q259.13 23.29 259.18 23.54Q259.23 23.68 259.13 23.78Q259.03 23.88 259.08 24.12M259.03 25.20Q259.23 25.44 259.23 25.76Q259.23 26.07 259.13 26.42Q259.03 26.76 258.94 27.08Q258.84 27.39 258.79 27.64Q258.69 27.69 258.57 27.76Q258.45 27.83 258.25 27.88Q258.06 27.88 257.84 27.81Q257.62 27.73 257.37 27.73Q256.84 27.59 256.81 27.39Q256.79 27.20 256.79 27.00Q257.62 26.86 258.06 26.27Q258.20 26.03 258.23 25.66Q258.25 25.29 258.35 25.05Q258.54 24.90 258.74 24.98Q258.94 25.05 259.03 25.20M253.81 41.26Q253.81 40.58 253.83 39.97Q253.86 39.36 253.96 38.62Q254.00 38.18 254.00 37.79Q254.00 37.40 254.05 37.11Q254.05 36.82 254.25 36.47Q254.44 36.13 254.79 36.38Q254.83 36.47 254.83 36.65Q254.83 36.82 254.88 36.91Q254.79 37.74 254.86 38.77Q254.93 39.79 255.18 40.58Q255.37 40.77 255.57 40.94Q255.76 41.11 256.15 41.16Q256.40 41.36 256.32 41.70Q256.25 42.04 256.01 42.14Q255.47 41.99 254.93 41.89Q254.39 41.80 254.00 41.55L253.81 41.26M237.55 49.17Q237.84 49.07 238.48 49.15Q239.11 49.22 239.31 49.61Q238.23 50.15 237.30 50.24Q236.38 50.34 235.64 50Q234.96 49.71 234.99 49.12Q235.01 48.54 235.06 48.05Q235.11 47.71 235.11 47.29Q235.11 46.88 235.16 46.53Q235.21 46.19 235.35 45.97Q235.50 45.75 235.84 45.75Q236.08 45.95 236.11 46.26Q236.13 46.58 236.18 46.92Q236.18 47.27 236.11 47.56Q236.04 47.85 236.04 48.10Q236.08 48.73 236.47 48.93Q236.87 49.12 237.55 49.17Z"/></g></g></g></svg>