<?xml version="1.0" encoding="UTF-8"?><svg id="Ebene_1" xmlns="http://www.w3.org/2000/svg" viewBox="0 0 873.07 195.59"><defs><style>.cls-1{fill:#10069f;}</style></defs><g><path class="cls-1" d="M820.32,93.85c-7.93,0-14.01,2-17.91,5.54v-4.9h-11.47v30.21h11.47v-10.7c0-9.12,5.64-13.02,15.06-13.02,8.86,0,12.95,3.11,12.95,11.07v12.65h11.47v-15.18c0-10.12-7.62-15.66-21.57-15.66m-47.36,15.76c0,5.64-5.52,8.59-15.62,8.59s-15.5-2.95-15.5-8.59,5.52-8.65,15.5-8.65,15.62,3.01,15.62,8.65m-42.58,0c0,9.54,10.17,15.71,26.96,15.71s27.09-6.17,27.09-15.71-10.29-15.76-27.09-15.76-26.96,6.17-26.96,15.76m-17.97,15.08h11.47v-30.21h-11.47v30.21Zm-.87-33.84h13.2v-8.22h-13.2v8.22Zm-55.66,31.53c6.26,1.85,15.99,3.01,25.29,3.01,16.55,0,24.11-3.64,24.11-10.34,0-13.5-38.12-6.9-38.12-12.07,0-1.74,3.1-2.42,11.09-2.42,9.11,0,15.93,1.06,22.93,3.06l.44-.1v-7.22c-6.69-1.63-13.95-2.42-21.88-2.42-16.05,0-24.05,3.32-24.05,9.75,0,13.55,38.12,6.86,38.12,12.13,0,2.11-3.53,2.95-12.95,2.95-8.93,0-16.36-.95-24.67-3.85l-.31,.1v7.43Zm-3.47-27.89h-12.02l-15.43,21.19-15.99-21.19h-12.77l-.19,.21,23.18,30h.06l-.74,1.06c-2.67,3.8-4.46,4.9-10.1,4.9h-1.24l-.37,.21v7.12h2.6c8.37,0,13.14-2.26,17.29-7.96l25.91-35.32-.19-.21Zm-82-.63c-7.38,0-13.7,1.84-17.91,5.27v-12.49h-11.47v38.06h11.47v-11.86c0-7.96,5.58-11.97,14.94-11.97,8.12,0,13.08,2.85,13.08,10.02v13.81h11.47v-15.18c0-9.8-8.12-15.66-21.57-15.66m-60.31,11.34h-22.13v-10.65h22.13c8.12,0,12.15,1.1,12.15,5.32s-4.03,5.32-12.15,5.32m.31-18.56h-34.21v38.06h11.77v-11.6h22.75c15.25,0,23.49-4.69,23.49-13.23s-8.37-13.23-23.8-13.23m-52.81,22.98c0,5.64-5.52,8.59-15.62,8.59s-15.49-2.95-15.49-8.59,5.52-8.65,15.49-8.65,15.62,3.01,15.62,8.65m-42.58,0c0,9.54,10.17,15.71,26.96,15.71s27.09-6.17,27.09-15.71-10.29-15.76-27.09-15.76-26.96,6.17-26.96,15.76m-33.53,8.59c-10.04,0-15.56-3.11-15.56-8.64s5.52-8.6,15.56-8.6,15.56,3.06,15.56,8.6-5.58,8.64-15.56,8.64m15.56-23.72v4.54c-4.15-3.32-10.47-5.17-18.35-5.17-14.57,0-24.24,6.28-24.24,16.08s9.55,15.39,24.67,15.39c7.93,0,13.95-1.58,17.91-4.48v1c-.12,5.8-6.07,8.96-16.8,8.96-7.75,0-15.62-2-22.07-5.8l-.31,.11v8.75c6.14,2.8,13.82,4.11,22,4.11,18.29,0,28.39-5.06,28.64-17.34v-26.15h-11.47Zm-52.5-.63c-7.25,0-13.64,1.84-17.79,5.27v-4.64h-11.47v30.21h11.47v-10.6c0-7.91,5.27-12.55,15.62-12.55,1.86,0,4.53,.16,6.51,.58l.31-.1v-7.91c-1.49-.16-2.91-.26-4.65-.26m-36.69,.53v-7.75h-54.79v38.06h54.79v-7.75h-43.02v-7.54h40.29v-7.54h-40.29v-7.48h43.02Z"/><path class="cls-1" d="M186.82,46.75L101.18,1.24c-3.1-1.65-6.8-1.65-9.89,0L5.64,46.75c-3.48,1.85-5.64,5.45-5.64,9.41v30.76c2-.16,4-.31,6.01-.41,7.84-.4,15.66-.13,23.49,.29,9,.49,17.96,1.51,26.85,3.04,8.27,1.42,16.39,3.41,24.22,6.49,3.49,1.38,6.88,2.98,10.03,5.06,2.47,1.64,4.7,3.55,6.62,5.81,3.02,3.56,4.58,7.64,4.27,12.37-.02,.3-.02,.61-.02,.92,0,.07,.03,.13,.07,.35,.4-.23,.72-.41,1.03-.6,9.86-6.11,20.19-11.25,31.16-15.02,4.28-1.47,8.62-2.76,13.05-3.67,3.87-.8,7.77-.93,11.68-.32,2.06,.32,3.89,1.11,5.31,2.71,1.62,1.82,1.96,3.96,1.55,6.28-.12,.67-.57,1.15-1.08,1.55-1.44,1.13-3.92,.83-5.02-.63-.24-.31-.39-.71-.48-1.1-.44-1.96-1.59-2.96-3.56-3.15-2.66-.25-5.26,.14-7.83,.75-9.58,2.26-18.69,5.78-27.49,10.16-9.84,4.9-19.06,10.78-27.78,17.47-.32,.25-.66,.48-.96,.75-1.04,.9-2.26,1.04-3.53,.83-1.1-.18-1.96-.82-2.29-1.92-.33-1.1-.2-2.18,.72-2.99,.82-.71,1.68-1.37,2.53-2.03,.69-.54,1.4-1.07,2.11-1.58,1.04-.75,1.89-1.68,2.43-2.83,2.58-5.5,2.45-10.27-1.57-15.08-1.7-2.02-3.81-3.55-6.05-4.9-4.29-2.57-8.88-4.44-13.63-5.92-7.46-2.32-15.08-3.95-22.81-5.11-7.52-1.13-15.08-1.87-22.66-2.31-5.5-.32-11-.46-16.5-.27-3.29,.11-6.58,.34-9.85,.67v46.84c0,3.96,2.16,7.56,5.64,9.41l85.65,45.52c1.55,.82,3.24,1.23,4.94,1.23s3.4-.41,4.94-1.24l85.65-45.51c3.48-1.85,5.64-5.46,5.64-9.41V56.16c0-3.96-2.16-7.57-5.64-9.41Zm-48.61,48.16h-.71v-.1c-1.38,0-2.75-.04-4.13,.01-1.56,.06-3.05,.51-4.52,1.03-.63,.22-1.28,.41-1.94,.56-.54,.12-1.01-.07-1.26-.61-1.07-2.28-2.96-3.84-4.79-5.43-.36-.31-.72-.61-1.08-.92-.38-.33-.44-.75-.27-1.2,.17-.46,.56-.55,1-.49,.43,.06,.87,.12,1.3,.21,4.34,.8,8.68,1.65,12.77,3.4,1.27,.54,2.46,1.26,3.68,1.9,.15,.08,.33,.16,.4,.3,.15,.28,.35,.6,.33,.89-.03,.4-.42,.47-.78,.46Zm12.46-.23c-1.16,.39-2.91,.44-4.03-1.06-2.65-3.59-6.17-6.16-9.9-8.46-5.58-3.45-11.62-5.9-17.83-7.92-7.86-2.56-15.92-4.22-24.11-5.19-5.23-.62-10.47-1.16-15.74-1.26-.54-.01-1.09-.05-1.6-.2-.73-.22-1.39-.64-1.51-1.48-.12-.83,.05-1.61,.77-2.2,.8-.65,1.72-.93,2.72-.95,.98-.03,1.96,0,2.94,0,7.73,.26,15.43,.78,23.06,2.19,8.65,1.61,17.11,3.89,25.22,7.37,5.48,2.36,10.7,5.2,15.38,8.95,2.07,1.66,3.97,3.47,5.6,5.58,.49,.64,.82,1.3,.78,2.14-.05,1.18-.63,2.11-1.74,2.48Z"/></g><path class="cls-1" d="M857.92,91.14h2.98c1.9,0,2.56,.55,2.56,1.97s-.66,1.87-2.56,1.87h-2.98v-3.84Zm2.84-2.07h-5.12v11.79h2.28v-4.05h3.08l2.7,4.05h2.66l-2.97-4.36c1.69-.52,2.45-1.66,2.45-3.52,0-2.7-1.48-3.9-5.08-3.9m-.14-3.78c5.32,0,9.72,4.4,9.72,9.76s-4.4,9.76-9.72,9.76-9.76-4.4-9.76-9.76,4.4-9.76,9.76-9.76m0-2.66c-6.88,0-12.45,5.57-12.45,12.45s5.57,12.45,12.45,12.45,12.45-5.57,12.45-12.45-5.57-12.45-12.45-12.45"/></svg>